<?xml version="1.0" encoding="UTF-8" standalone="no"?>
<svg
   width="256mm"
   height="203mm"
   viewBox="0 0 256 203"
   version="1.1"
   preserveAspectRatio="xMidYMid meet"
   id="svg9"
   sodipodi:docname="SustenControl.svg"
   inkscape:version="1.3 (0e150ed6c4, 2023-07-21)"
   xmlns:inkscape="http://www.inkscape.org/namespaces/inkscape"
   xmlns:sodipodi="http://sodipodi.sourceforge.net/DTD/sodipodi-0.dtd"
   xmlns="http://www.w3.org/2000/svg"
   xmlns:svg="http://www.w3.org/2000/svg"
   xmlns:rdf="http://www.w3.org/1999/02/22-rdf-syntax-ns#"
   xmlns:cc="http://creativecommons.org/ns#"
   xmlns:dc="http://purl.org/dc/elements/1.1/">
  <path
     id="rect1"
     style="opacity:0;stroke:#000000;stroke-width:0.264583"
     d="m 196.98228,121.04688 h 19.31459 v 7.14375 h -19.31459 z" />
  <metadata
     id="metadata15">
    <rdf:RDF>
      <cc:Work
         rdf:about="">
        <dc:format>image/svg+xml</dc:format>
        <dc:type
           rdf:resource="http://purl.org/dc/dcmitype/StillImage" />
      </cc:Work>
    </rdf:RDF>
  </metadata>
  <defs
     id="defs13">
    <marker
       id="DistanceX"
       orient="auto"
       refX="0.0"
       refY="0.0"
       style="overflow:visible">
      <path
         d="M 3,-3 L -3,3 M 0,-5 L  0,5"
         style="stroke:#000000; stroke-width:0.5"
         id="path1" />
    </marker>
    <pattern
       id="Hatch"
       patternUnits="userSpaceOnUse"
       width="8"
       height="8"
       x="0"
       y="0">
      <path
         d="M8 4 l-4,4"
         stroke="#000000"
         stroke-width="0.25"
         linecap="square"
         id="path2" />
      <path
         d="M6 2 l-4,4"
         stroke="#000000"
         stroke-width="0.25"
         linecap="square"
         id="path3" />
      <path
         d="M4 0 l-4,4"
         stroke="#000000"
         stroke-width="0.25"
         linecap="square"
         id="path4" />
    </pattern>
    <marker
       id="DistanceX-6"
       orient="auto"
       refX="0.0"
       refY="0.0"
       style="overflow:visible">
      <path
         d="M 3,-3 L -3,3 M 0,-5 L  0,5"
         style="stroke:#000000; stroke-width:0.5"
         id="path1-7" />
    </marker>
    <pattern
       id="Hatch-5"
       patternUnits="userSpaceOnUse"
       width="8"
       height="8"
       x="0"
       y="0">
      <path
         d="M8 4 l-4,4"
         stroke="#000000"
         stroke-width="0.25"
         linecap="square"
         id="path2-1" />
      <path
         d="M6 2 l-4,4"
         stroke="#000000"
         stroke-width="0.25"
         linecap="square"
         id="path3-7" />
      <path
         d="M4 0 l-4,4"
         stroke="#000000"
         stroke-width="0.25"
         linecap="square"
         id="path4-9" />
    </pattern>
  </defs>
  <sodipodi:namedview
     pagecolor="#ffffff"
     bordercolor="#666666"
     borderopacity="1"
     objecttolerance="10"
     gridtolerance="10"
     guidetolerance="10"
     inkscape:pageopacity="0"
     inkscape:pageshadow="2"
     inkscape:window-width="1366"
     inkscape:window-height="705"
     id="namedview11"
     showgrid="false"
     inkscape:zoom="0.5"
     inkscape:cx="436"
     inkscape:cy="439"
     inkscape:window-x="-8"
     inkscape:window-y="-8"
     inkscape:window-maximized="1"
     inkscape:current-layer="svg9"
     inkscape:document-rotation="0"
     inkscape:showpageshadow="0"
     inkscape:pagecheckerboard="0"
     inkscape:deskcolor="#505050"
     inkscape:document-units="mm" />
  <g
     id="svgGroup"
     stroke-linecap="round"
     fill-rule="evenodd"
     font-size="12px"
     stroke="#000"
     stroke-width="0.25mm"
     fill="none"
     style="fill:none;stroke:#000000;stroke-width:0.25mm"
     transform="translate(0.31715888,0.20924761)">
    <path
       style="color:#000000;font-style:normal;font-variant:normal;font-weight:normal;font-stretch:normal;font-size:medium;line-height:normal;font-family:sans-serif;font-variant-ligatures:normal;font-variant-position:normal;font-variant-caps:normal;font-variant-numeric:normal;font-variant-alternates:normal;font-variant-east-asian:normal;font-feature-settings:normal;font-variation-settings:normal;text-indent:0;text-align:start;text-decoration:none;text-decoration-line:none;text-decoration-style:solid;text-decoration-color:#000000;letter-spacing:normal;word-spacing:normal;text-transform:none;writing-mode:lr-tb;direction:ltr;text-orientation:mixed;dominant-baseline:auto;baseline-shift:baseline;text-anchor:start;white-space:normal;shape-padding:0;shape-margin:0;inline-size:0;clip-rule:nonzero;display:inline;overflow:visible;visibility:visible;opacity:1;isolation:auto;mix-blend-mode:normal;color-interpolation:sRGB;color-interpolation-filters:linearRGB;solid-color:#000000;solid-opacity:1;vector-effect:non-scaling-stroke;fill:#ff0000;fill-opacity:1;fill-rule:nonzero;stroke:none;stroke-linecap:butt;stroke-linejoin:miter;stroke-miterlimit:4;stroke-dasharray:none;stroke-dashoffset:0;stroke-opacity:1;color-rendering:auto;image-rendering:auto;shape-rendering:auto;text-rendering:auto;enable-background:accumulate;stop-color:#000000;stop-opacity:1"
       d="M -0.05078125,102.94922 V 103 140.85547 H 2.9492188 v 24.28906 h -3.00000005 v 24.44141 13.46484 H 37.855469 v -3 h 24.289062 v 3 h 24.441407 13.464842 v -37.90625 h -2.999999 v -24.28906 h 2.999999 V 116.41406 102.94922 H 62.144531 v 3 H 37.855469 v -3 H 13.414062 Z m 0.1015625,0.10156 H 13.414062 37.755859 v 3 h 24.488282 v -3 h 37.705078 v 13.36328 24.3418 h -3 v 24.48828 h 3 v 37.70508 H 86.585938 62.244141 v -3 H 37.755859 v 3 H 0.05078125 v -13.36328 -24.3418 H 3.0507812 V 140.75586 H 0.05078125 Z"
       id="front_outsideCutPath" />
    <path
       style="color:#000000;font-style:normal;font-variant:normal;font-weight:normal;font-stretch:normal;font-size:medium;line-height:normal;font-family:sans-serif;font-variant-ligatures:normal;font-variant-position:normal;font-variant-caps:normal;font-variant-numeric:normal;font-variant-alternates:normal;font-variant-east-asian:normal;font-feature-settings:normal;font-variation-settings:normal;text-indent:0;text-align:start;text-decoration:none;text-decoration-line:none;text-decoration-style:solid;text-decoration-color:#000000;letter-spacing:normal;word-spacing:normal;text-transform:none;writing-mode:lr-tb;direction:ltr;text-orientation:mixed;dominant-baseline:auto;baseline-shift:baseline;text-anchor:start;white-space:normal;shape-padding:0;shape-margin:0;inline-size:0;clip-rule:nonzero;display:inline;overflow:visible;visibility:visible;opacity:1;isolation:auto;mix-blend-mode:normal;color-interpolation:sRGB;color-interpolation-filters:linearRGB;solid-color:#000000;solid-opacity:1;vector-effect:non-scaling-stroke;fill:#ff0000;fill-opacity:1;fill-rule:nonzero;stroke:none;stroke-linecap:butt;stroke-linejoin:miter;stroke-miterlimit:4;stroke-dasharray:none;stroke-dashoffset:0;stroke-opacity:1;color-rendering:auto;image-rendering:auto;shape-rendering:auto;text-rendering:auto;enable-background:accumulate;stop-color:#000000;stop-opacity:1"
       d="M 105.94922,102.94922 V 103 140.75586 h -3 v 24.48828 h 3 v 24.3418 13.46484 h 9.90625 v -3 h 24.28906 v 3 h 9.90625 v -37.80664 h 3 v -24.48828 h -3 v -24.3418 -13.46484 h -9.90625 v 3 h -24.28906 v -3 z m 0.10156,0.10156 h 9.70508 v 3 h 24.48828 v -3 h 9.70508 v 13.36328 24.44141 h 3 v 24.28906 h -3 v 37.80469 h -9.70508 v -3 h -24.48828 v 3 h -9.70508 v -13.36328 -24.44141 h -3 v -24.28906 h 3 z"
       id="left_outsideCutPath" />
    <path
       style="color:#000000;font-style:normal;font-variant:normal;font-weight:normal;font-stretch:normal;font-size:medium;line-height:normal;font-family:sans-serif;font-variant-ligatures:normal;font-variant-position:normal;font-variant-caps:normal;font-variant-numeric:normal;font-variant-alternates:normal;font-variant-east-asian:normal;font-feature-settings:normal;font-variation-settings:normal;text-indent:0;text-align:start;text-decoration:none;text-decoration-line:none;text-decoration-style:solid;text-decoration-color:#000000;letter-spacing:normal;word-spacing:normal;text-transform:none;writing-mode:lr-tb;direction:ltr;text-orientation:mixed;dominant-baseline:auto;baseline-shift:baseline;text-anchor:start;white-space:normal;shape-padding:0;shape-margin:0;inline-size:0;clip-rule:nonzero;display:inline;overflow:visible;visibility:visible;opacity:1;isolation:auto;mix-blend-mode:normal;color-interpolation:sRGB;color-interpolation-filters:linearRGB;solid-color:#000000;solid-opacity:1;vector-effect:non-scaling-stroke;fill:#ff0000;fill-opacity:1;fill-rule:nonzero;stroke:none;stroke-linecap:butt;stroke-linejoin:miter;stroke-miterlimit:4;stroke-dasharray:none;stroke-dashoffset:0;stroke-opacity:1;color-rendering:auto;image-rendering:auto;shape-rendering:auto;text-rendering:auto;enable-background:accumulate;stop-color:#000000;stop-opacity:1"
       d="m 193.75586,152.94922 v 3 h -24.3418 -10.46484 V 156 v 9.75586 h -3 v 24.48828 h 3 v 9.80664 h 34.80664 v 3 h 24.48828 v -3 h 24.3418 10.46484 v -9.80664 h 3 v -24.48828 h -3 v -9.80664 h -34.80664 v -3 z m 0.0996,0.10156 h 24.28906 v 3 h 34.80469 v 9.80469 h 3 v 24.28906 h -3 v 9.80469 h -10.36328 -24.44141 v 3 h -24.28906 v -3 h -34.80469 v -9.80469 h -3 v -24.28906 h 3 v -9.80469 h 10.36328 24.44141 z"
       id="top_outsideCutPath" />
    <path
       style="color:#000000;font-style:normal;font-variant:normal;font-weight:normal;font-stretch:normal;font-size:medium;line-height:normal;font-family:sans-serif;font-variant-ligatures:normal;font-variant-position:normal;font-variant-caps:normal;font-variant-numeric:normal;font-variant-alternates:normal;font-variant-east-asian:normal;font-feature-settings:normal;font-variation-settings:normal;text-indent:0;text-align:start;text-decoration:none;text-decoration-line:none;text-decoration-style:solid;text-decoration-color:#000000;letter-spacing:normal;word-spacing:normal;text-transform:none;writing-mode:lr-tb;direction:ltr;text-orientation:mixed;dominant-baseline:auto;baseline-shift:baseline;text-anchor:start;white-space:normal;shape-padding:0;shape-margin:0;inline-size:0;clip-rule:nonzero;display:inline;overflow:visible;visibility:visible;opacity:1;isolation:auto;mix-blend-mode:normal;color-interpolation:sRGB;color-interpolation-filters:linearRGB;solid-color:#000000;solid-opacity:1;vector-effect:non-scaling-stroke;fill:#ff0000;fill-opacity:1;fill-rule:nonzero;stroke:none;stroke-linecap:butt;stroke-linejoin:miter;stroke-miterlimit:4;stroke-dasharray:none;stroke-dashoffset:0;stroke-opacity:1;color-rendering:auto;image-rendering:auto;shape-rendering:auto;text-rendering:auto;enable-background:accumulate;stop-color:#000000;stop-opacity:1"
       d="M -0.05078125,-0.05078125 V 0 37.855469 H 2.9492188 V 62.144531 H -0.05078125 V 86.585938 100.05078 H 37.855469 v -2.999999 h 24.289062 v 2.999999 H 86.585938 100.05078 V 62.144531 H 97.050781 V 37.855469 h 2.999999 V 13.414062 -0.05078125 H 62.144531 V 2.9492188 H 37.855469 V -0.05078125 H 13.414062 Z m 0.1015625,0.1015625 H 13.414062 37.755859 V 3.0507812 H 62.244141 V 0.05078125 H 99.949219 V 13.414062 37.755859 h -3 v 24.488282 h 3 V 99.949219 H 86.585938 62.244141 v -3 H 37.755859 v 3 H 0.05078125 V 86.585938 62.244141 H 3.0507812 V 37.755859 H 0.05078125 Z"
       id="back_outsideCutPath" />
    <path
       style="color:#000000;font-style:normal;font-variant:normal;font-weight:normal;font-stretch:normal;font-size:medium;line-height:normal;font-family:sans-serif;font-variant-ligatures:normal;font-variant-position:normal;font-variant-caps:normal;font-variant-numeric:normal;font-variant-alternates:normal;font-variant-east-asian:normal;font-feature-settings:normal;font-variation-settings:normal;text-indent:0;text-align:start;text-decoration:none;text-decoration-line:none;text-decoration-style:solid;text-decoration-color:#000000;letter-spacing:normal;word-spacing:normal;text-transform:none;writing-mode:lr-tb;direction:ltr;text-orientation:mixed;dominant-baseline:auto;baseline-shift:baseline;text-anchor:start;white-space:normal;shape-padding:0;shape-margin:0;inline-size:0;clip-rule:nonzero;display:inline;overflow:visible;visibility:visible;opacity:1;isolation:auto;mix-blend-mode:normal;color-interpolation:sRGB;color-interpolation-filters:linearRGB;solid-color:#000000;solid-opacity:1;vector-effect:non-scaling-stroke;fill:#ff0000;fill-opacity:1;fill-rule:nonzero;stroke:none;stroke-linecap:butt;stroke-linejoin:miter;stroke-miterlimit:4;stroke-dasharray:none;stroke-dashoffset:0;stroke-opacity:1;color-rendering:auto;image-rendering:auto;shape-rendering:auto;text-rendering:auto;enable-background:accumulate;stop-color:#000000;stop-opacity:1"
       d="M 105.94922,-0.05078125 V 0 37.755859 h -3 v 24.488282 h 3 v 24.341797 13.464842 h 9.90625 v -2.999999 h 24.28906 v 2.999999 h 9.90625 V 62.244141 h 3 V 37.755859 h -3 V 13.414062 -0.05078125 h -9.90625 V 2.9492188 h -24.28906 v -3.00000005 z m 0.10156,0.1015625 h 9.70508 V 3.0507812 h 24.48828 V 0.05078125 h 9.70508 V 13.414062 37.855469 h 3 v 24.289062 h -3 v 37.804688 h -9.70508 v -3 h -24.48828 v 3 h -9.70508 V 86.585938 62.144531 h -3 V 37.855469 h 3 z"
       id="right_outsideCutPath" />
    <path
       style="color:#000000;font-style:normal;font-variant:normal;font-weight:normal;font-stretch:normal;font-size:medium;line-height:normal;font-family:sans-serif;font-variant-ligatures:normal;font-variant-position:normal;font-variant-caps:normal;font-variant-numeric:normal;font-variant-alternates:normal;font-variant-east-asian:normal;font-feature-settings:normal;font-variation-settings:normal;text-indent:0;text-align:start;text-decoration:none;text-decoration-line:none;text-decoration-style:solid;text-decoration-color:#000000;letter-spacing:normal;word-spacing:normal;text-transform:none;writing-mode:lr-tb;direction:ltr;text-orientation:mixed;dominant-baseline:auto;baseline-shift:baseline;text-anchor:start;white-space:normal;shape-padding:0;shape-margin:0;inline-size:0;clip-rule:nonzero;display:inline;overflow:visible;visibility:visible;opacity:1;isolation:auto;mix-blend-mode:normal;color-interpolation:sRGB;color-interpolation-filters:linearRGB;solid-color:#000000;solid-opacity:1;vector-effect:non-scaling-stroke;fill:#ff0000;fill-opacity:1;fill-rule:nonzero;stroke:none;stroke-linecap:butt;stroke-linejoin:miter;stroke-miterlimit:4;stroke-dasharray:none;stroke-dashoffset:0;stroke-opacity:1;color-rendering:auto;image-rendering:auto;shape-rendering:auto;text-rendering:auto;enable-background:accumulate;stop-color:#000000;stop-opacity:1"
       d="m 193.75586,99.949219 v 3.000001 h -24.3418 -10.46484 V 103 v 9.75586 h -3 v 24.48828 h 3 v 9.80664 h 34.80664 v 3 h 24.48828 v -3 h 24.3418 10.46484 v -9.80664 h 3 v -24.48828 h -3 v -9.80664 h -34.80664 v -3.000001 z m 0.0996,0.101561 h 24.28906 v 3 h 34.80469 v 9.80469 h 3 v 24.28906 h -3 v 9.80469 h -10.36328 -24.44141 v 3 h -24.28906 v -3 h -34.80469 v -9.80469 h -3 v -24.28906 h 3 v -9.80469 h 10.36328 24.44141 z"
       id="bottom_outsideCutPath" />
  </g>
  <path
     style="color:#000000;font-style:normal;font-variant:normal;font-weight:normal;font-stretch:normal;font-size:medium;line-height:normal;font-family:sans-serif;font-variant-ligatures:normal;font-variant-position:normal;font-variant-caps:normal;font-variant-numeric:normal;font-variant-alternates:normal;font-variant-east-asian:normal;font-feature-settings:normal;font-variation-settings:normal;text-indent:0;text-align:start;text-decoration:none;text-decoration-line:none;text-decoration-style:solid;text-decoration-color:#000000;letter-spacing:normal;word-spacing:normal;text-transform:none;writing-mode:lr-tb;direction:ltr;text-orientation:mixed;dominant-baseline:auto;baseline-shift:baseline;text-anchor:start;white-space:normal;shape-padding:0;shape-margin:0;inline-size:0;clip-rule:nonzero;display:inline;overflow:visible;visibility:visible;isolation:auto;mix-blend-mode:normal;color-interpolation:sRGB;color-interpolation-filters:linearRGB;solid-color:#000000;solid-opacity:1;vector-effect:none;fill:#000000;fill-opacity:0;fill-rule:nonzero;stroke-width:0.662035;stroke-linecap:butt;stroke-linejoin:miter;stroke-miterlimit:4;stroke-dasharray:none;stroke-dashoffset:0;stroke-opacity:1;color-rendering:auto;image-rendering:auto;shape-rendering:auto;text-rendering:auto;enable-background:accumulate;stop-color:#000000;stop-opacity:1;stroke:none;opacity:1"
     d="m 26.810235,122.63277 c 2e-6,1.3588 -1.119287,2.46032 -2.5,2.46032 -1.380713,0 -2.500002,-1.10152 -2.5,-2.46032 -2e-6,-1.3588 1.119287,-2.46032 2.5,-2.46032 1.380713,0 2.500002,1.10152 2.5,2.46032 z"
     id="path1928-4" />
  <path
     style="color:#000000;font-style:normal;font-variant:normal;font-weight:normal;font-stretch:normal;font-size:medium;line-height:normal;font-family:sans-serif;font-variant-ligatures:normal;font-variant-position:normal;font-variant-caps:normal;font-variant-numeric:normal;font-variant-alternates:normal;font-variant-east-asian:normal;font-feature-settings:normal;font-variation-settings:normal;text-indent:0;text-align:start;text-decoration:none;text-decoration-line:none;text-decoration-style:solid;text-decoration-color:#000000;letter-spacing:normal;word-spacing:normal;text-transform:none;writing-mode:lr-tb;direction:ltr;text-orientation:mixed;dominant-baseline:auto;baseline-shift:baseline;text-anchor:start;white-space:normal;shape-padding:0;shape-margin:0;inline-size:0;clip-rule:nonzero;display:inline;overflow:visible;visibility:visible;isolation:auto;mix-blend-mode:normal;color-interpolation:sRGB;color-interpolation-filters:linearRGB;solid-color:#000000;solid-opacity:1;vector-effect:none;fill:#000000;fill-opacity:0;fill-rule:nonzero;stroke-width:0.662035;stroke-linecap:butt;stroke-linejoin:miter;stroke-miterlimit:4;stroke-dasharray:none;stroke-dashoffset:0;stroke-opacity:1;color-rendering:auto;image-rendering:auto;shape-rendering:auto;text-rendering:auto;enable-background:accumulate;stop-color:#000000;stop-opacity:1;stroke:none;opacity:1"
     d="m 180.4328,132.35686 c 0,1.3588 -1.11929,2.46032 -2.5,2.46032 -1.38071,0 -2.5,-1.10152 -2.5,-2.46032 0,-1.3588 1.11929,-2.46032 2.5,-2.46032 1.38071,0 2.5,1.10152 2.5,2.46032 z m -14.81772,0.002 c 0,1.3588 -1.11929,2.46032 -2.5,2.46032 -1.38071,0 -2.5,-1.10152 -2.5,-2.46032 0,-1.3588 1.11929,-2.46032 2.5,-2.46032 1.38071,0 2.5,1.10152 2.5,2.46032 z m 7.40938,-0.002 c 0,1.3588 -1.11929,2.46032 -2.5,2.46032 -1.38071,0 -2.5,-1.10152 -2.5,-2.46032 0,-1.35879 1.11929,-2.46031 2.5,-2.46031 1.38071,0 2.5,1.10152 2.5,2.46031 z m 7.40834,-7.40838 c 0,1.3588 -1.11929,2.46032 -2.5,2.46032 -1.38071,0 -2.5,-1.10152 -2.5,-2.46032 0,-1.3588 1.11929,-2.46032 2.5,-2.46032 1.38071,0 2.5,1.10152 2.5,2.46032 z m -14.81772,0.002 c 0,1.3588 -1.11929,2.46032 -2.5,2.46032 -1.38071,0 -2.5,-1.10152 -2.5,-2.46032 0,-1.3588 1.11929,-2.46032 2.5,-2.46032 1.38071,0 2.5,1.10152 2.5,2.46032 z m 7.40938,-0.002 c 0,1.3588 -1.11929,2.46032 -2.5,2.46032 -1.38071,0 -2.5,-1.10152 -2.5,-2.46032 0,-1.35879 1.11929,-2.46031 2.5,-2.46031 1.38071,0 2.5,1.10152 2.5,2.46031 z m 7.40834,-7.40838 c 0,1.3588 -1.11929,2.46032 -2.5,2.46032 -1.38071,0 -2.5,-1.10152 -2.5,-2.46032 0,-1.3588 1.11929,-2.46032 2.5,-2.46032 1.38071,0 2.5,1.10152 2.5,2.46032 z m -14.81772,0.002 c 0,1.3588 -1.11929,2.46032 -2.5,2.46032 -1.38071,0 -2.5,-1.10152 -2.5,-2.46032 0,-1.3588 1.11929,-2.46032 2.5,-2.46032 1.38071,0 2.5,1.10152 2.5,2.46032 z m 7.40938,-0.002 c 0,1.3588 -1.11929,2.46032 -2.5,2.46032 -1.38071,0 -2.5,-1.10152 -2.5,-2.46032 0,-1.35879 1.11929,-2.46031 2.5,-2.46031 1.38071,0 2.5,1.10152 2.5,2.46031 z"
     id="path1972-2" />
  <path
     style="color:#000000;font-style:normal;font-variant:normal;font-weight:normal;font-stretch:normal;font-size:medium;line-height:normal;font-family:sans-serif;font-variant-ligatures:normal;font-variant-position:normal;font-variant-caps:normal;font-variant-numeric:normal;font-variant-alternates:normal;font-variant-east-asian:normal;font-feature-settings:normal;font-variation-settings:normal;text-indent:0;text-align:start;text-decoration:none;text-decoration-line:none;text-decoration-style:solid;text-decoration-color:#000000;letter-spacing:normal;word-spacing:normal;text-transform:none;writing-mode:lr-tb;direction:ltr;text-orientation:mixed;dominant-baseline:auto;baseline-shift:baseline;text-anchor:start;white-space:normal;shape-padding:0;shape-margin:0;inline-size:0;clip-rule:nonzero;display:inline;overflow:visible;visibility:visible;isolation:auto;mix-blend-mode:normal;color-interpolation:sRGB;color-interpolation-filters:linearRGB;solid-color:#000000;solid-opacity:1;vector-effect:none;fill:#000000;fill-opacity:0;fill-rule:nonzero;stroke-width:0.662035;stroke-linecap:butt;stroke-linejoin:miter;stroke-miterlimit:4;stroke-dasharray:none;stroke-dashoffset:0;stroke-opacity:1;color-rendering:auto;image-rendering:auto;shape-rendering:auto;text-rendering:auto;enable-background:accumulate;stop-color:#000000;stop-opacity:1;stroke:none;opacity:1"
     d="m 251.34158,132.35686 c 0,1.3588 -1.11929,2.46032 -2.5,2.46032 -1.38071,0 -2.5,-1.10152 -2.5,-2.46032 0,-1.3588 1.11929,-2.46032 2.5,-2.46032 1.38071,0 2.5,1.10152 2.5,2.46032 z m -14.81772,0.002 c 0,1.3588 -1.11929,2.46032 -2.5,2.46032 -1.38071,0 -2.5,-1.10152 -2.5,-2.46032 0,-1.3588 1.11929,-2.46032 2.5,-2.46032 1.38071,0 2.5,1.10152 2.5,2.46032 z m 7.40938,-0.002 c 0,1.3588 -1.11929,2.46032 -2.5,2.46032 -1.38071,0 -2.5,-1.10152 -2.5,-2.46032 0,-1.35879 1.11929,-2.46031 2.5,-2.46031 1.38071,0 2.5,1.10152 2.5,2.46031 z m 7.40834,-7.40838 c 0,1.3588 -1.11929,2.46032 -2.5,2.46032 -1.38071,0 -2.5,-1.10152 -2.5,-2.46032 0,-1.3588 1.11929,-2.46032 2.5,-2.46032 1.38071,0 2.5,1.10152 2.5,2.46032 z m -14.81772,0.002 c 0,1.3588 -1.11929,2.46032 -2.5,2.46032 -1.38071,0 -2.5,-1.10152 -2.5,-2.46032 0,-1.3588 1.11929,-2.46032 2.5,-2.46032 1.38071,0 2.5,1.10152 2.5,2.46032 z m 7.40938,-0.002 c 0,1.3588 -1.11929,2.46032 -2.5,2.46032 -1.38071,0 -2.5,-1.10152 -2.5,-2.46032 0,-1.35879 1.11929,-2.46031 2.5,-2.46031 1.38071,0 2.5,1.10152 2.5,2.46031 z m 7.40834,-7.40838 c 0,1.3588 -1.11929,2.46032 -2.5,2.46032 -1.38071,0 -2.5,-1.10152 -2.5,-2.46032 0,-1.3588 1.11929,-2.46032 2.5,-2.46032 1.38071,0 2.5,1.10152 2.5,2.46032 z m -14.81772,0.002 c 0,1.3588 -1.11929,2.46032 -2.5,2.46032 -1.38071,0 -2.5,-1.10152 -2.5,-2.46032 0,-1.3588 1.11929,-2.46032 2.5,-2.46032 1.38071,0 2.5,1.10152 2.5,2.46032 z m 7.40938,-0.002 c 0,1.3588 -1.11929,2.46032 -2.5,2.46032 -1.38071,0 -2.5,-1.10152 -2.5,-2.46032 0,-1.35879 1.11929,-2.46031 2.5,-2.46031 1.38071,0 2.5,1.10152 2.5,2.46031 z"
     id="path1972-2-3" />
  <path
     style="color:#000000;font-style:normal;font-variant:normal;font-weight:normal;font-stretch:normal;font-size:medium;line-height:normal;font-family:sans-serif;font-variant-ligatures:normal;font-variant-position:normal;font-variant-caps:normal;font-variant-numeric:normal;font-variant-alternates:normal;font-variant-east-asian:normal;font-feature-settings:normal;font-variation-settings:normal;text-indent:0;text-align:start;text-decoration:none;text-decoration-line:none;text-decoration-style:solid;text-decoration-color:#000000;letter-spacing:normal;word-spacing:normal;text-transform:none;writing-mode:lr-tb;direction:ltr;text-orientation:mixed;dominant-baseline:auto;baseline-shift:baseline;text-anchor:start;white-space:normal;shape-padding:0;shape-margin:0;inline-size:0;clip-rule:nonzero;display:inline;overflow:visible;visibility:visible;isolation:auto;mix-blend-mode:normal;color-interpolation:sRGB;color-interpolation-filters:linearRGB;solid-color:#000000;solid-opacity:1;vector-effect:none;fill:#000000;fill-opacity:0;fill-rule:nonzero;stroke-width:2.065;stroke-linecap:butt;stroke-linejoin:miter;stroke-miterlimit:4;stroke-dasharray:none;stroke-dashoffset:0;stroke-opacity:1;color-rendering:auto;image-rendering:auto;shape-rendering:auto;text-rendering:auto;enable-background:accumulate;stop-color:#000000;stop-opacity:1;stroke:none;opacity:1"
     d="m 134.97615,110.00813 h 6.73519 v 84.18991 h -6.73519 z"
     id="rect2126" />
  <g
     id="g1"
     transform="matrix(0.10944486,0,0,0.10944486,29.580726,51.050262)">
    <g
       inkscape:label="0"
       id="g4" />
    <path
       style="color:#000000;font-style:normal;font-variant:normal;font-weight:normal;font-stretch:normal;font-size:medium;line-height:normal;font-family:sans-serif;font-variant-ligatures:normal;font-variant-position:normal;font-variant-caps:normal;font-variant-numeric:normal;font-variant-alternates:normal;font-variant-east-asian:normal;font-feature-settings:normal;font-variation-settings:normal;text-indent:0;text-align:start;text-decoration:none;text-decoration-line:none;text-decoration-style:solid;text-decoration-color:#000000;letter-spacing:normal;word-spacing:normal;text-transform:none;writing-mode:lr-tb;direction:ltr;text-orientation:mixed;dominant-baseline:auto;baseline-shift:baseline;text-anchor:start;white-space:normal;shape-padding:0;shape-margin:0;inline-size:0;clip-rule:nonzero;display:inline;overflow:visible;visibility:visible;isolation:auto;mix-blend-mode:normal;color-interpolation:sRGB;color-interpolation-filters:linearRGB;solid-color:#000000;solid-opacity:1;vector-effect:none;fill:#000000;fill-opacity:1;fill-rule:nonzero;stroke-width:1;stroke-linecap:butt;stroke-linejoin:miter;stroke-miterlimit:4;stroke-dasharray:none;stroke-dashoffset:0;stroke-opacity:1;color-rendering:auto;image-rendering:auto;shape-rendering:auto;text-rendering:auto;enable-background:accumulate;stop-color:#000000;stop-opacity:1;stroke:none;opacity:1"
       d="m 23.865346,1101.7551 c -1.738514,-0.731 -3.586888,-2.4882 -4.135751,-3.9319 -0.633949,-1.6674 -0.992386,-41.053 -0.992386,-109.04504 v -106.4349 l -17.2499997,-0.0239 c -9.4875,-0.0131 -19.0500003,-0.44092 -21.2500003,-0.95065 -5.22788,-1.21129 -7.5,-4.1137 -7.5,-9.58052 0,-4.91104 0.486261,-5.55908 12,-15.99248 4.125,-3.73794 9.5250003,-8.64163 12.0000003,-10.89707 2.47500002,-2.25545 16.1999997,-14.65627 30.4999997,-27.55739 14.3,-12.90113 37.925,-34.28173 52.5,-47.51246 44.741251,-40.6147 100.296551,-90.81849 104.284801,-94.23929 3.01824,-2.5888 4.66963,-3.24629 8.15362,-3.24629 4.24059,0 4.8927,0.47365 22.21521,16.13562 22.57722,20.41296 34.12588,30.88167 47.34637,42.91887 5.775,5.25811 20.625,18.7151 33,29.90441 26.73576,24.17412 40.8159,36.9347 83.7967,75.94348 l 32.29671,29.31204 -0.29671,5.54097 c -0.25379,4.73969 -0.70471,5.84491 -3.11818,7.64279 -2.59672,1.93438 -4.36752,2.12904 -22.22825,2.44351 l -19.40675,0.34169 -0.27176,107.38584 -0.27176,107.38587 -2.77332,2.7725 -2.77331,2.7725 -166.34094,0.1167 c -135.834675,0.095 -166.91741,-0.1256 -169.484294,-1.2049 z m 336.799284,-4.0467 c 2.06762,-2.6285 2.07258,-2.8926 2.07224,-110.25 l -3.4e-4,-107.61514 16.75034,0.29151 c 19.42144,0.338 25.83071,-0.7699 28.12004,-4.8608 2.5703,-4.59295 0.85991,-7.06515 -14.57803,-21.07127 -8.09884,-7.34769 -17.6731,-16.05944 -21.27614,-19.35944 -3.60303,-3.3 -10.818,-9.85875 -16.03325,-14.575 -14.48577,-13.09976 -32.05137,-29.00581 -48.54954,-43.96273 -8.21301,-7.44575 -24.85074,-22.52075 -36.97275,-33.5 -12.122,-10.97925 -33.43557,-30.31227 -47.36348,-42.96227 -13.92791,-12.65 -26.44181,-23.60014 -27.80867,-24.33364 -1.36686,-0.7335 -3.45329,-1.07944 -4.63652,-0.76875 -1.18323,0.31069 -10.73048,8.33583 -21.21613,17.83364 -10.48564,9.49781 -32.95051,29.86875 -49.92193,45.26875 -16.97142,15.4 -33.622147,30.475 -37.001617,33.5 -3.37947,3.025 -24.758224,22.375 -47.508343,43 -22.750118,20.625 -45.343092,41.06296 -50.206609,45.41768 -4.863517,4.35473 -9.097849,8.93405 -9.409628,10.17627 -0.311779,1.24223 0.04107,3.52927 0.784107,5.08232 2.087905,4.36401 8.115431,5.46274 28.0618788,5.11524 l 16.7330492,-0.29151 0.266951,108.33853 0.26695,108.33851 2.360784,1.9115 c 2.303189,1.8648 6.418367,1.9115 168.677417,1.9115 h 166.31664 z m -329.260754,-8.0318 c -0.366667,-0.3667 -0.666667,-49.4455 -0.666667,-109.06413 V 872.21501 l -21.1550375,0.31412 c -15.4096023,0.22882 -21.2633045,-10e-4 -21.5536805,-0.84691 -0.219253,-0.63857 30.563014,-29.19779 68.405038,-63.46492 37.842024,-34.26713 83.593781,-75.73003 101.670571,-92.13977 18.07678,-16.40974 33.41883,-29.70053 34.09344,-29.53508 2.38972,0.58608 203.03967,183.1 203.03967,184.68764 0,1.44348 -2.23537,1.58013 -21.25,1.29904 l -21.25,-0.31412 v 109.06412 109.06417 h -14.5 -14.5 v -36.9592 c 0,-22.3537 -0.44714,-39.9655 -1.13149,-44.5667 l -1.13148,-7.6076 3.08026,-3.18327 c 6.36118,-6.5739 7.63123,-11.32852 8.01105,-29.99042 0.32872,-16.15099 0.42659,-16.8402 2.50687,-17.65396 4.84632,-1.89579 9.66479,-8.89884 9.66479,-14.04661 0,-1.13957 -0.91815,-3.87168 -2.04034,-6.07135 -7.00623,-13.73334 -27.12633,-8.74021 -27.12633,6.73184 0,5.3899 2.00485,8.65021 7.57288,12.31513 l 3.74942,2.4679 -0.32781,17.60856 c -0.32315,17.35743 -0.36771,17.6688 -3.12468,21.83147 -1.53827,2.3226 -3.44956,4.47337 -4.24731,4.77949 -0.79774,0.30613 -2.96018,-0.72859 -4.80541,-2.29936 -1.84523,-1.57078 -4.77144,-3.62253 -6.50269,-4.55945 l -3.14773,-1.70349 0.003,-59.29651 0.003,-59.29651 3.71634,-2 c 10.83011,-5.82838 10.97594,-20.36373 0.25833,-25.74844 -4.41704,-2.2192 -8.5431,-2.2192 -12.96014,0 -10.71761,5.38471 -10.57178,19.92006 0.25833,25.74844 l 3.71634,2 0.003,58.75 0.003,58.75 h -4.80422 c -6.56414,0 -13.13438,-4.17599 -16.05167,-10.20231 -2.02456,-4.18219 -2.14411,-5.88711 -2.14411,-30.57823 0,-26.10798 0.004,-26.15091 2.25,-27.30646 1.2375,-0.63655 3.49468,-2.31845 5.01595,-3.73756 9.18472,-8.56786 2.50266,-24.17544 -10.3502,-24.17544 -15.45365,0 -20.34065,20.82518 -6.43544,27.42363 l 3.51969,1.67021 0.006,24.70308 c 0.006,26.57742 0.49602,30.16489 5.01811,36.73752 5.13319,7.46083 10.04096,9.8033 25.11456,11.98715 4.72502,0.68456 10.36175,4.50244 10.36175,7.01824 0,1.87301 -1.02279,1.98641 -23,2.54921 -23.36163,0.5982 -28.9709,1.398 -34.82037,4.9647 -3.85484,2.3505 -7.25169,2.5039 -8.07264,0.3645 -0.33385,-0.87 -0.60699,-7.0867 -0.60699,-13.81481 v -12.233 l 3.45105,-1.6457 c 11.57036,-5.51751 9.66673,-23.46175 -2.84641,-26.83119 -10.81974,-2.91345 -21.13779,7.90092 -17.64265,18.4913 1.20773,3.65946 7.08797,9.61516 9.49334,9.61516 1.09129,0 1.45574,2.7091 1.7152,12.75 0.26072,10.08934 0.73017,13.55724 2.24963,16.61844 1.24223,2.5027 1.59529,4.3034 1,5.1004 -9.2572,12.3939 -9.64457,14.1748 -10.17565,46.7812 l -0.45197,27.75 h -4.89627 -4.89627 l -0.0201,-45.75 c -0.0111,-25.1625 -0.42585,-48.55525 -0.92176,-51.98384 -0.4959,-3.4286 -1.94936,-8.35821 -3.22989,-10.95469 -3.00676,-6.09669 -11.66015,-14.7709 -16.24493,-16.28401 l -3.58331,-1.1826 v -13.10673 c 0,-15.46515 1.5533,-20.09064 8.23059,-24.50947 3.5758,-2.36635 5.20757,-2.69566 15.77698,-3.18401 9.90352,-0.45759 12.14116,-0.86414 13.99293,-2.54233 3.44825,-3.12503 4.9995,-6.9743 4.9995,-12.40578 0,-4.73009 0.18989,-5.09285 3.48424,-6.65612 6.6376,-3.14975 9.71327,-11.0163 7.04195,-18.01104 -5.29498,-13.86473 -24.36221,-11.98306 -28.04332,2.76747 -1.34294,5.38128 3.50684,13.70012 9.26713,15.89592 1.98232,0.75565 2.25,1.55988 2.25,6.76 0,4.21866 -0.46169,6.28547 -1.61854,7.24557 -1.0396,0.86279 -5.77903,1.55724 -13.25,1.94147 -10.34799,0.5322 -12.101,0.89578 -15.88665,3.295 -9.19224,5.82573 -12.24481,13.51709 -12.24481,30.85247 v 10.08887 l -6.61055,-0.67727 c -7.8893,-0.80828 -14.85777,-4.0904 -19.21077,-9.04819 -5.60745,-6.38654 -6.55377,-9.18372 -6.98833,-20.65646 -0.4773,-12.60114 -1.40597,-11.85957 14.87815,-11.88061 17.21713,-0.0222 25.51576,-3.88414 30.71441,-14.29342 1.94929,-3.90308 2.21709,-6.01504 2.21709,-17.48475 v -13.04544 l 4.36987,-2.56092 c 10.90988,-6.39362 9.91874,-21.68017 -1.69322,-26.11481 -3.55288,-1.35686 -5.11252,-1.46556 -8.27721,-0.57688 -4.86699,1.36671 -6.58706,2.68059 -9.26912,7.08025 -4.20232,6.89349 -1.74585,14.76467 6.22528,19.9474 l 3.79136,2.4651 -0.32348,13.1128 c -0.30293,12.27975 -0.49399,13.37015 -3.0075,17.16375 -4.29066,6.47586 -8.75847,7.98459 -25.56598,8.63339 l -14.25,0.55008 0.0269,-23.19511 0.0269,-23.1951 3.81856,-2.35337 c 4.98827,-3.07427 7.29432,-7.13413 7.29432,-12.84189 0,-5.21651 -1.97167,-8.51515 -7.25862,-12.14386 -6.58214,-4.51765 -16.71106,-1.31047 -20.39776,6.45867 -3.32645,7.00999 -0.47689,14.90098 6.81803,18.88045 l 3.66628,2 0.003,24.58954 0.003,24.58954 -6.04209,4.6921 c -11.24908,8.7357 -14.95791,17.49093 -14.95791,35.31032 0,12.41092 -0.27233,12.86303 -5.40561,8.97439 -5.17103,-3.91724 -7.35337,-4.72598 -15.09576,-5.59426 -8.53149,-0.95676 -14.853438,-3.77018 -15.306115,-6.81157 -0.237666,-1.59681 0.388459,-2.21875 2.757499,-2.73908 4.874976,-1.07072 14.202276,-7.90307 18.490456,-13.54446 7.37482,-9.70207 7.48816,-10.52051 7.5422,-54.46652 0.0264,-21.45 0.37856,-39.49971 0.78264,-40.11047 0.40408,-0.61075 2.21709,-1.8701 4.02891,-2.79854 4.47397,-2.29263 7.1983,-7.05792 7.1983,-12.59099 0,-6.13704 -2.92449,-10.64002 -8.51684,-13.11378 -5.42374,-2.39918 -10.25565,-1.78369 -14.58307,1.8576 -8.59451,7.2318 -7.54109,17.71658 2.43149,24.20089 l 3.75986,2.44471 -0.29198,40.05529 c -0.2815,38.61686 -0.36958,40.2232 -2.45287,44.73096 -4.24748,9.19057 -14.18062,17.45443 -23.001891,19.13639 -5.82309,1.1103 -5.805217,1.2277 -6.151857,-40.41094 l -0.314638,-37.79442 3.94007,-2.48726 c 6.001107,-3.78833 8.189819,-7.13185 8.185467,-12.5043 -0.0073,-8.96565 -6.720228,-15.55047 -15.1185,-14.82987 -8.624939,0.74003 -14.657608,7.86387 -13.563991,16.0174 0.66987,4.99426 3.249049,8.59769 8.014549,11.19733 l 3.666277,2 0.0027,36.625 c 0.0015,20.14375 0.279631,38.00965 0.618099,39.70199 0.556793,2.78396 0.342524,3.13069 -2.25,3.64093 -8.616379,1.69581 -12.299066,2.93503 -16.615971,5.59124 -2.628709,1.61746 -5.222711,2.94084 -5.764448,2.94084 -0.613275,0 -0.97681,-7.26442 -0.963335,-19.25 l 0.02164,-19.25 3.218889,-1.5 c 9.807458,-4.57027 10.435391,-18.94512 1.09653,-25.10211 -5.853701,-3.85927 -15.878634,-1.61259 -19.850076,4.4486 -4.407368,6.72649 -1.868406,16.39693 5.373637,20.46718 l 3.882085,2.18186 0.416071,23.25224 c 0.387862,21.67577 0.28382,23.47874 -1.53459,26.59314 -4.307701,7.37783 -4.61377,11.8668 -4.63021,67.90913 l -0.01562,53.25 h -6.833333 c -3.758333,0 -7.133333,-0.3 -7.5,-0.6667 z m 11.366052,-51.0833 c 0.01799,-27.3625 0.431493,-52.84497 0.918883,-56.62767 0.513243,-3.98334 2.077573,-9.28008 3.717282,-12.58652 l 2.831116,-5.7089 -0.269733,-21.11058 -0.269734,-21.11058 -3.862381,-2.17078 c -5.258984,-2.95571 -8.098152,-8.27538 -8.098152,-15.17328 0,-6.88167 2.767746,-11.36051 9.008072,-14.5771 12.209557,-6.29344 26.073871,3.20358 24.752495,16.9554 -0.549548,5.71926 -2.822701,9.30998 -8.088961,12.77751 l -3.671606,2.41755 v 15.83245 c 0,8.70786 0.168321,15.83246 0.374047,15.83246 0.205726,0 2.343226,-1.08682 4.75,-2.41515 2.406774,-1.32833 7.012534,-3.01583 10.235022,-3.75 l 5.859069,-1.33485 -0.600377,-5 c -0.330207,-2.75 -0.604288,-19.69305 -0.609069,-37.65122 l -0.0087,-32.65123 -3.490937,-2.0597 c -5.039693,-2.97349 -7.500833,-7.56001 -7.505325,-13.98672 -0.0074,-10.63863 6.341595,-17.43684 16.284734,-17.43684 16.890297,0 24.016537,18.90862 11.325688,30.05133 -2.026064,1.77891 -4.118094,3.23438 -4.648956,3.23438 -1.243173,0 -1.278678,71.95636 -0.03647,73.91893 0.764914,1.20849 1.606679,1.14831 5.676037,-0.40579 5.775978,-2.20587 12.580278,-8.27155 16.215878,-14.45562 l 2.67935,-4.55752 0.24362,-40 0.24362,-40 -3.16005,-2 c -11.08759,-7.01735 -10.95562,-21.64148 0.26476,-29.3376 4.58831,-3.14716 13.84596,-2.76693 18.81712,0.77285 3.88007,2.76286 7.04701,9.08357 7.04701,14.06475 0,6.66241 -6.33816,16 -10.86045,16 -0.77487,0 -1.09911,11.19818 -1.1075,38.25 -0.0128,41.27051 -0.34711,44.56772 -5.39138,53.17511 -3.78539,6.4593 -10.79675,13.01903 -17.49062,16.36399 l -5.890273,2.94341 3.425993,1.63375 c 1.8843,0.89856 4.73859,1.63374 6.34286,1.63374 5.18021,0 12.87647,2.0952 16.34669,4.45015 l 3.3824,2.29536 0.5619,-10.62275 c 0.88442,-16.72031 5.23926,-25.91673 16.18635,-34.18186 l 5.53795,-4.18119 -0.003,-22.62985 -0.003,-22.62986 -3.71634,-2 c -5.5541,-2.98901 -8.27826,-7.67727 -8.27826,-14.24675 0,-3.00236 0.74402,-7.01889 1.65629,-8.94136 4.73455,-9.97733 20.06861,-11.70452 28.0271,-3.1569 6.96112,7.47642 5.13133,20.47217 -3.64481,25.8866 l -3.98479,2.45841 -0.0281,21 -0.0281,21 13.43386,-0.57257 c 12.26635,-0.52282 13.77375,-0.79751 17.34487,-3.16077 5.9802,-3.9575 7.22359,-7.5895 7.22359,-21.1004 0,-10.5311 -0.16816,-11.58486 -1.93841,-12.14671 -1.06613,-0.33838 -3.29719,-2.16279 -4.95792,-4.05426 -9.97913,-11.36559 -2.62875,-28.45008 12.2452,-28.46155 6.36363,-0.005 11.23967,2.41739 14.36114,7.13425 5.49499,8.30348 3.25865,19.53735 -4.80593,24.14179 l -3.88868,2.22022 -0.008,11.0685 c -0.009,13.37773 -1.60365,19.43118 -6.67956,25.36125 -5.74226,6.70854 -11.79589,9.04865 -23.43857,9.06048 -5.28574,0.005 -11.69824,0.29594 -14.25,0.6457 l -4.63957,0.63592 v 6.18257 c 0,3.40042 0.66486,8.42141 1.47747,11.15776 2.93968,9.89898 13.64891,18.35593 23.27253,18.37805 l 4.25,0.01 0.022,-11.75 c 0.0244,-13.07247 1.17141,-16.98383 6.89044,-23.49744 5.24267,-5.97108 10.7991,-8.02984 23.00795,-8.52489 11.67118,-0.47324 13.10081,-1.20365 13.05275,-6.6688 -0.0216,-2.4595 -0.78379,-3.52547 -3.88965,-5.44017 -10.66589,-6.57528 -10.7356,-22.84433 -0.12597,-29.40144 8.00141,-4.94514 20.51621,-1.56084 24.38623,6.59463 3.86318,8.14104 0.62851,19.23399 -6.77046,23.2186 -3.45421,1.86021 -3.57325,2.11407 -3.57325,7.62019 0,4.73087 -0.458,6.24017 -2.70331,8.90857 -3.91872,4.65713 -7.88652,5.94075 -18.36344,5.94075 -10.93395,0 -14.95155,1.55943 -18.73086,7.27036 -2.40213,3.62986 -2.64612,4.9633 -2.94482,16.09371 l -0.32568,12.13593 5.2706,2.53759 c 7.06338,3.40076 14.16819,12.18508 16.83273,20.81186 1.83834,5.95187 1.96478,9.47545 1.96478,54.75586 v 48.3947 h 2.93041 2.9304 l 0.39333,-28.25 c 0.4269,-30.6609 0.71001,-32.5238 6.17766,-40.6487 3.24858,-4.8274 3.31902,-5.1356 2.01123,-8.802 -0.81661,-2.2893 -1.37269,-8.204 -1.39914,-14.88177 l -0.0439,-11.08245 -3.71788,-2.41755 c -5.82504,-3.78772 -8.28212,-8.21335 -8.28212,-14.91754 0,-6.55774 2.38807,-10.9971 7.92168,-14.7262 4.10827,-2.76856 11.63347,-3.05326 16.73364,-0.63307 8.22659,3.90377 11.73696,14.74969 7.47668,23.10054 -2.00354,3.92725 -6.74287,8.25873 -9.03637,8.25873 -1.16642,0 -1.56453,17.65021 -0.48858,21.66111 0.5755,2.1454 0.60289,2.1476 3.73635,0.3008 6.69851,-3.9478 14.02871,-4.9619 35.8667,-4.9619 12.82796,0 20.7899,-0.37315 20.7899,-0.97433 0,-1.63705 -5.20192,-3.75404 -11,-4.47657 -9.22151,-1.14915 -14.65138,-3.38868 -19.39579,-7.99972 -8.13593,-7.90722 -8.06484,-7.5852 -8.41167,-38.10293 l -0.30746,-27.05354 -3.58241,-1.92925 c -10.21122,-5.49911 -11.74643,-21.24985 -2.76017,-28.31844 12.32894,-9.69794 29.5084,-0.83121 28.23115,14.57076 -0.50797,6.12539 -2.66251,9.62026 -8.16285,13.2409 l -3.73241,2.45689 0.3108,25.1191 0.31081,25.1191 2.68402,4.05286 c 1.61516,2.4389 4.42894,4.89757 7.06572,6.17401 8.47663,4.10347 7.75026,9.23119 7.75026,-54.71131 v -56.83245 l -3.75,-2.41755 c -4.23941,-2.73305 -8.25,-9.74188 -8.25,-14.41754 0,-3.99298 3.79494,-11.37002 7.07739,-13.75784 5.6623,-4.11904 15.18208,-4.11978 20.84303,-0.002 3.28436,2.38925 7.07957,9.76544 7.07957,13.75946 0,4.67566 -4.01058,11.68449 -8.25,14.41754 l -3.75,2.41755 v 57.80677 57.80678 l 3.25,1.64265 c 1.78751,0.90346 4.21067,2.51977 5.38484,3.5918 2.1281,1.94302 2.14112,1.94029 4.1365,-0.86697 3.25115,-4.57394 4.21718,-10.04077 4.22308,-23.89858 l 0.006,-13.08245 -3.67161,-2.41755 c -5.26626,-3.46753 -7.53941,-7.05825 -8.08896,-12.77751 -1.25422,-13.05299 11.01452,-22.36999 23.28589,-17.68351 6.39973,2.44408 9.74874,7.18423 10.28172,14.55265 0.51717,7.14976 -2.09946,12.52458 -7.84262,16.10953 l -3.81489,2.3813 -0.32476,17 c -0.29883,15.64196 -0.51735,17.37681 -2.73549,21.71689 -1.32589,2.59428 -3.64481,5.89922 -5.15315,7.3443 -2.39182,2.2916 -2.62696,3.0301 -1.83928,5.7766 0.49673,1.732 0.90315,21.0395 0.90315,42.9057 v 39.7566 H 338.254 350.77135 L 350.504,979.34301 350.23666,870.3429 l 20.76733,1.1e-4 20.76733,10e-5 -22.31794,-20.25 c -12.27487,-11.1375 -26.79517,-24.30317 -32.26733,-29.25704 -5.47217,-4.95387 -24.34939,-22.04395 -41.94939,-37.97795 -17.6,-15.934 -46.4,-41.9897 -64,-57.90155 -17.6,-15.91186 -33.64237,-30.48154 -35.64971,-32.37707 l -3.6497,-3.44642 -21.8503,19.8879 c -18.61652,16.9452 -78.820054,71.4629 -157.734006,142.83769 l -19.8842657,17.98459 20.8842657,0.26906 20.884265,0.26905 -0.267343,108.98095 -0.267344,108.98098 h 4.517344 4.517343 z m 9.989243,46 c 0.02485,-6.507 2.594086,-13.1655 6.786989,-17.5893 5.032343,-5.3095 7.55531,-6.0204 23.850547,-6.72 12.262169,-0.5265 15.777966,-1.0131 18.395473,-2.5458 5.62416,-3.2934 7.3158,-6.5781 7.90981,-15.3588 0.51982,-7.6839 0.63525,-7.9788 4.01142,-10.2477 4.56559,-3.0681 8.02418,-8.322 8.02225,-12.1863 -0.004,-7.8544 -6.89223,-14.6049 -14.89633,-14.5984 -8.519496,0.01 -14.419597,6.0105 -14.430291,14.6834 -0.0061,4.962 4.03715,10.9993 8.492681,12.6811 2.78138,1.0498 2.83549,1.2196 2.83549,8.8987 0,7.1054 -0.2354,8.0467 -2.5481,10.1901 -2.396188,2.2207 -3.424597,2.3818 -17.25,2.7022 -13.18026,0.3055 -15.190096,0.5903 -19.418786,2.7515 -2.594287,1.3259 -5.940978,3.6884 -7.437091,5.25 -1.496114,1.5616 -3.569964,2.8393 -4.608557,2.8393 -1.827622,0 -1.876112,-1.3749 -1.507787,-42.75 0.397203,-44.61909 0.839063,-49.25004 4.699166,-49.25004 0.953257,0 2.362784,1.1764 3.132281,2.61422 1.986096,3.71105 9.805426,10.48342 15.208043,13.17177 5.906696,2.93918 16.943234,4.19676 36.915731,4.20642 8.62669,0.004 16.83919,0.44645 18.25,0.98284 l 2.5651,0.97525 v 47.52474 47.5248 h -39.500001 -39.5 z m 76.738469,-41.6896 c 0.17751,-30.6313 -0.0768,-45.27721 -0.79868,-46.00001 -0.65119,-0.65201 -10.1876,-1.28814 -24.76043,-1.65167 -15.845029,-0.39526 -24.861468,-1.02845 -27.201321,-1.91025 -5.788225,-2.18137 -13.383044,-7.45981 -17.274026,-12.00554 l -3.665476,-4.28229 -1.030249,2.70976 c -0.643847,1.69345 -1.030249,17.51776 -1.030249,42.1918 v 39.482 l 3.75,-3.0075 c 6.018274,-4.8265 11.301931,-6.1779 26.654512,-6.8169 16.626189,-0.6922 17.595489,-1.2211 17.595489,-9.6023 0,-5.0361 -0.20407,-5.4668 -3.671607,-7.75 -5.656503,-3.7245 -7.650223,-7.1041 -8.054976,-13.6541 -0.462155,-7.479 2.326989,-12.5985 8.726582,-16.0177 11.686941,-6.24423 25.230771,1.6885 25.230771,14.7779 0,6.7521 -3.47826,12.4743 -9.48077,15.5971 -2.61958,1.3628 -2.75,1.7781 -2.75,8.7571 0,8.8968 -2.23018,12.9673 -8.96996,16.3722 -3.876734,1.9584 -5.998578,2.25 -16.375911,2.25 -6.55715,0 -13.63648,0.5136 -15.731846,1.1414 -4.969535,1.4889 -10.515838,6.1242 -12.809266,10.7053 -1.947982,3.891 -3.466729,12.4662 -2.397299,13.5356 0.353039,0.3531 17.098927,0.524 37.213085,0.3798 l 36.571197,-0.2621 z m 8.23957,1.9396 c 0,-28.6207 0.35861,-45.50004 0.96667,-45.50004 1.82741,0 8.03686,7.07324 10.78342,12.28344 l 2.74991,5.2166 0.30641,36.75 0.30642,36.75 h -7.55642 -7.55641 z m 12.5,9 v -34 l -2.65796,-5.5 c -1.46188,-3.025 -3.8082,-6.85 -5.21404,-8.5 l -2.55607,-3 -0.036,42.8022 -0.036,42.8023 5.25,-0.3023 5.25,-0.3022 z m 8.47989,5.2687 c -0.0111,-17.1978 -0.42635,-34.0775 -0.92286,-37.5104 -1.61803,-11.187 -7.38504,-20.4372 -17.55703,-28.16141 l -3,-2.27807 v -23.15943 c 0,-22.89757 0.0296,-23.22259 2.61981,-28.74591 2.77452,-5.91637 8.9589,-12.91352 11.41352,-12.91352 1.10114,0 1.46963,1.30843 1.47854,5.25 0.0154,6.7895 2.22897,15.00721 5.28143,19.60648 6.66193,10.03779 15.20039,14.93534 28.36482,16.26968 5.0122,0.50804 10.07161,1.69827 12.60697,2.9658 6.48607,3.24265 12.47952,9.60953 14.74447,15.66315 1.88872,5.04805 1.99044,7.84763 1.99044,54.78243 v 49.4625 h -3 -3 v -20.5322 c 0,-22.7286 -0.40924,-24.7416 -6.13076,-30.1565 -4.13268,-3.9112 -7.66177,-5.3113 -13.38729,-5.3113 -8.86029,0 -11.48698,-3.044 -11.47425,-13.2971 l 0.008,-6.2029 4.08546,-2.3335 c 9.92822,-5.6707 9.84743,-19.45513 -0.14694,-25.07228 -4.67614,-2.62814 -9.50843,-2.66326 -13.71306,-0.0997 -9.58969,5.84691 -9.52357,19.36598 0.12255,25.05738 3.20291,1.8897 3.37233,2.2937 3.98071,9.4908 1.083,12.8118 4.89231,16.8146 17.19367,18.0668 5.9885,0.6096 7.4042,1.1494 10.12249,3.8598 4.04785,4.0362 4.52292,7.3675 4.14012,29.0307 l -0.3004,17 -22.75,0.2687 -22.75,0.2688 z m 43.02011,9.747 v -19.4842 l -2.7761,-3.107 c -2.4256,-2.7147 -3.67966,-3.2062 -9.93264,-3.8926 -12.90658,-1.4167 -18.225,-7.1755 -18.2693,-19.7819 -0.0122,-3.4733 -0.46496,-6.25 -1.01908,-6.25 -0.54842,0 -2.79413,-1.6235 -4.99047,-3.6078 -8.78615,-7.9378 -7.21278,-22.61742 2.98962,-27.89329 4.51811,-2.33641 13.71036,-1.95383 17.6328,0.73388 10.05945,6.89284 9.70512,23.08701 -0.63434,28.99141 -3.48396,1.9896 -3.98605,2.7286 -3.99279,5.8765 -0.0104,4.8696 1.79486,9.7176 3.82588,10.2743 0.91653,0.2513 3.91642,0.7439 6.66642,1.0947 2.75,0.3508 6.37803,1.0706 8.06229,1.5996 3.67088,1.153 9.84246,7.2643 11.5434,11.4307 0.72631,1.779 1.50449,11.1397 1.91206,23 0.49038,14.2702 0.65791,6.1052 0.58476,-28.5 -0.11488,-54.35284 0.188,-51.93251 -7.5492,-60.32638 -5.09719,-5.52979 -11.35984,-8.22891 -21.05331,-9.07369 -19.01112,-1.65681 -32.64895,-15.11427 -33.96277,-33.51359 l -0.53723,-7.52355 -3.11299,3.96859 c -6.84261,8.7233 -6.8566,8.78888 -7.2051,33.7711 l -0.31809,22.80252 2.81809,2.13498 c 5.16559,3.91344 11.24477,10.69602 13.4463,15.00222 4.48013,8.763 4.8474,12.3909 4.85992,48.0078 l 0.0119,33.75 h 20.5 20.5 z m 36.19368,-7.2657 0.30632,-28.75 2.77297,-5.6467 c 3.88029,-7.9014 4.94043,-8.61 9.52506,-6.366 2.33333,1.142 7.46054,2.0943 13.86832,2.5757 11.08173,0.8325 15.7008,2.458 20.43329,7.1905 6.24505,6.245 6.37125,6.8935 6.71276,34.4965 l 0.31241,25.25 h -27.11873 -27.11872 z m 51.57894,7.3482 c 0.3048,-21.1323 -0.61162,-28.3154 -4.28954,-33.6227 -4.13283,-5.9636 -9.32483,-8.2004 -21.18296,-9.1259 -5.71302,-0.4459 -11.62596,-1.4839 -13.25683,-2.3273 -1.61919,-0.8373 -3.17235,-1.5223 -3.45148,-1.5223 -1.53353,0 -5.62132,9.3947 -6.52675,15 -1.15558,7.1539 -1.4742,49.2575 -0.38103,50.3507 0.37621,0.3762 11.51371,0.5637 24.75,0.4166 l 24.06597,-0.2673 z m 8.21983,1.1518 c -0.008,-20.9059 -1.00141,-30.9329 -3.55448,-35.87 -5.00415,-9.6769 -15.51403,-15.8744 -26.93797,-15.8848 -14.7245,-0.013 -18.66037,-3.5893 -8.48701,-7.7108 5.04598,-2.0443 7.14869,-2.2255 26.16072,-2.2537 12.30187,-0.018 22.75942,-0.5122 25.82424,-1.2196 4.31601,-0.9963 5.29806,-0.9558 6.06098,0.25 0.50815,0.8031 0.91721,19.4448 0.92576,42.1889 l 0.0153,40.75 h -10 -10 z m 17.00755,-21.7253 v -39.9752 l -2.75,1.1232 c -1.63365,0.6672 -11.68081,1.2765 -24.75,1.5008 -20.68007,0.355 -29.5,1.32 -29.5,3.2279 0,0.4516 3.9702,1.0475 8.82266,1.3242 15.81736,0.9019 26.45127,7.8724 31.14399,20.4148 1.83227,4.8972 2.03335,7.7548 2.03335,28.8971 v 23.4625 h 7.5 7.5 z m -142,-39.6971 c -5.07326,-1.9909 -7.22083,-8.0661 -4.62549,-13.08498 1.80126,-3.48324 3.34683,-4.24266 8.6347,-4.24266 10.43235,0 10.83277,15.77604 0.44271,17.44274 -1.62355,0.2605 -3.62692,0.2087 -4.45192,-0.1151 z m 7.92742,-4.9625 c 1.13992,-1.4492 2.07258,-3.2696 2.07258,-4.04545 0,-2.11838 -4.62336,-6.31969 -6.95455,-6.31969 -2.87301,0 -6.04545,3.50084 -6.04545,6.67124 0,6.1658 7.09613,8.5646 10.92742,3.6939 z m -76.92742,-16.33133 c -23.504542,-0.65911 -26.817239,-1.34496 -34.009177,-7.04108 -4.300113,-3.40575 -9.990824,-11.42571 -9.990824,-14.08014 0,-0.95949 1.813154,-3.18057 4.029231,-4.93574 8.320228,-6.58974 22.482032,-9.36273 25.212295,-4.93676 0.692161,1.12204 3.510611,3.59583 6.263222,5.4973 4.156873,2.87152 6.426193,3.63546 13.395133,4.50929 4.61471,0.57864 9.56258,1.65955 10.99525,2.40203 6.2447,3.23629 10.8566,9.6308 11.34058,15.724 0.31514,3.96744 2.82291,3.704 -27.23571,2.8611 z m 25,-3.14765 c 0,-2.50139 -4.58686,-9.02085 -8.02125,-11.40088 -2.62994,-1.82256 -6.19987,-2.92037 -12.61089,-3.87808 -10.383413,-1.55112 -13.459139,-2.93377 -19.120888,-8.59552 l -4.133937,-4.13394 -5.560036,1.02783 c -3.05802,0.56531 -6.570953,1.56297 -7.806518,2.21702 -4.118311,2.18006 -8.746482,6.09907 -8.746482,7.4063 0,2.69568 7.843957,11.0756 13.077544,13.97111 5.37589,2.97424 5.589916,3.00473 24.922457,3.5504 10.725,0.30272 21.4125,0.64022 23.75,0.75 2.57572,0.12097 4.25,-0.23919 4.25,-0.91424 z m 106.64602,-10.33841 c -2.031,-1.88227 -2.64602,-3.40365 -2.64602,-6.54545 0,-5.51961 3.39177,-9.01501 8.70454,-8.97049 8.55535,0.0717 12.36091,9.05658 6.37238,15.04511 -3.77578,3.77578 -8.66498,3.96096 -12.4309,0.47083 z m 10.60398,-2.35474 c 1.77948,-1.5283 2.31864,-5.79552 0.98469,-7.7933 -4.24562,-6.3584 -14.56571,-0.81115 -11.40333,6.12951 1.96421,4.31097 6.49412,5.03437 10.41864,1.66379 z m -11.893,-74.14674 c -5.50162,-2.31734 -7.04322,-9.97439 -2.96313,-14.71778 5.29818,-6.1595 15.60613,-2.08317 15.60613,6.17151 0,6.27428 -6.92444,10.95498 -12.643,8.54627 z m 8.57042,-4.68113 c 1.13992,-1.44917 2.07258,-3.18848 2.07258,-3.86514 0,-0.67665 -0.93266,-2.41597 -2.07258,-3.86514 -3.82098,-4.85759 -11.17742,-2.31374 -11.17742,3.86514 0,6.17888 7.35644,8.72273 11.17742,3.86514 z M 82.737209,862.63703 c -8.299048,-3.03376 -8.033856,-14.6736 0.402623,-17.67194 1.046443,-0.3719 3.416769,-0.17648 5.267392,0.43428 7.055255,2.32845 8.301141,12.16149 2.025724,15.98785 -3.22829,1.96841 -4.960435,2.24972 -7.695739,1.24981 z m 7.17126,-3.94876 c 3.959206,-3.58303 0.812903,-11.34501 -4.59868,-11.34501 -2.637136,0 -6.57258,4.15922 -6.57258,6.9463 0,2.62061 3.805409,6.0537 6.710215,6.0537 1.447767,0 3.455237,-0.74474 4.461045,-1.65499 z m 61.328741,3.4974 c -3.29338,-1.97145 -4.43467,-4.12166 -4.4682,-8.41809 -0.041,-5.24771 3.0514,-8.42432 8.20086,-8.42432 4.98842,0 6.60999,0.79504 8.30432,4.07152 2.07355,4.00979 1.81639,7.41026 -0.78698,10.40648 -2.58901,2.97969 -8.2386,4.16706 -11.25,2.36441 z m 8.67126,-3.4974 c 3.95921,-3.58303 0.8129,-11.34501 -4.59868,-11.34501 -2.63714,0 -6.57258,4.15922 -6.57258,6.9463 0,2.62061 3.80541,6.0537 6.71021,6.0537 1.44777,0 3.45524,-0.74474 4.46105,-1.65499 z m 138.18729,3.20976 c -6.56561,-2.8569 -6.4955,-12.8383 0.1122,-15.97386 1.83233,-0.8695 3.64549,-1.58091 4.02925,-1.58091 0.38376,0 2.19692,0.71141 4.02925,1.58091 6.7423,3.19943 6.67584,13.18197 -0.10662,16.01587 -4.03191,1.68464 -4.09676,1.6843 -8.06408,-0.042 z m 8.64145,-3.55477 c 1.1,-1.1 2,-3.10747 2,-4.46104 0,-2.959 -3.55863,-6.53896 -6.5,-6.53896 -2.94137,0 -6.5,3.57996 -6.5,6.53896 0,3.17504 3.30581,6.46104 6.5,6.46104 1.375,0 3.4,-0.9 4.5,-2 z"
       id="path5" />
  </g>
  <g
     aria-label="SUSTENCONTROL"
     id="text101"
     style="font-size:7.05556px;line-height:1.25;font-family:sans-serif;letter-spacing:0px;stroke-width:0.264583">
    <path
       style="color:#000000;font-style:normal;font-variant:normal;font-weight:bold;font-stretch:normal;font-size:7.05556px;line-height:1.25;font-family:Arial;-inkscape-font-specification:'Arial Bold';font-variant-ligatures:normal;font-variant-position:normal;font-variant-caps:normal;font-variant-numeric:normal;font-variant-alternates:normal;font-variant-east-asian:normal;font-feature-settings:normal;font-variation-settings:normal;text-indent:0;text-align:start;text-decoration:none;text-decoration-line:none;text-decoration-style:solid;text-decoration-color:#000000;letter-spacing:0px;word-spacing:normal;text-transform:none;writing-mode:lr-tb;direction:ltr;text-orientation:mixed;dominant-baseline:auto;baseline-shift:baseline;text-anchor:start;white-space:normal;shape-padding:0;shape-margin:0;inline-size:0;clip-rule:nonzero;display:inline;overflow:visible;visibility:visible;isolation:auto;mix-blend-mode:normal;color-interpolation:sRGB;color-interpolation-filters:linearRGB;solid-color:#000000;solid-opacity:1;vector-effect:none;fill:#000000;fill-opacity:1;fill-rule:nonzero;stroke-width:0.264583;stroke-linecap:butt;stroke-linejoin:miter;stroke-miterlimit:4;stroke-dasharray:none;stroke-dashoffset:0;stroke-opacity:1;color-rendering:auto;image-rendering:auto;shape-rendering:auto;text-rendering:auto;enable-background:accumulate;stop-color:#000000;stop-opacity:1;stroke:none;opacity:1"
       d="m 19.054736,180.6546 0.992188,-0.0965 c 0.05971,0.33303 0.180292,0.57763 0.361736,0.7338 0.183738,0.15618 0.430637,0.23427 0.740696,0.23427 0.328433,0 0.575331,-0.0689 0.740696,-0.20671 0.167661,-0.1401 0.251492,-0.30317 0.251492,-0.4892 0,-0.11943 -0.0356,-0.22048 -0.106798,-0.30317 -0.0689,-0.085 -0.190629,-0.15847 -0.365181,-0.22048 -0.11943,-0.0413 -0.391593,-0.11483 -0.816488,-0.22049 -0.546622,-0.13551 -0.930176,-0.30202 -1.150662,-0.49954 -0.310059,-0.27791 -0.465089,-0.61667 -0.465089,-1.0163 0,-0.25723 0.07235,-0.49724 0.217042,-0.72003 0.146991,-0.22508 0.357141,-0.39619 0.630452,-0.51332 0.275608,-0.11713 0.607486,-0.1757 0.995634,-0.1757 0.633898,0 1.11047,0.13895 1.429715,0.41686 0.321543,0.27791 0.490353,0.64883 0.50643,1.11277 l -1.019749,0.0448 c -0.04364,-0.25953 -0.137806,-0.44556 -0.282498,-0.5581 -0.142397,-0.11484 -0.357142,-0.17226 -0.644234,-0.17226 -0.296278,0 -0.528248,0.0609 -0.695909,0.18259 -0.107947,0.0781 -0.16192,0.18259 -0.16192,0.3135 0,0.11943 0.05053,0.22164 0.151584,0.30662 0.128617,0.10795 0.440973,0.22049 0.937067,0.33762 0.496094,0.11713 0.862423,0.23886 1.098986,0.36518 0.23886,0.12402 0.424895,0.29513 0.558106,0.51332 0.135507,0.21589 0.203261,0.48346 0.203261,0.80271 0,0.28939 -0.08039,0.5604 -0.241157,0.81304 -0.160771,0.25264 -0.388148,0.44097 -0.68213,0.56499 -0.293981,0.12173 -0.66031,0.1826 -1.098986,0.1826 -0.638491,0 -1.128843,-0.14699 -1.471056,-0.44098 -0.342213,-0.29627 -0.546623,-0.72691 -0.613228,-1.29191 z"
       id="path103" />
    <path
       style="color:#000000;font-style:normal;font-variant:normal;font-weight:bold;font-stretch:normal;font-size:7.05556px;line-height:1.25;font-family:Arial;-inkscape-font-specification:'Arial Bold';font-variant-ligatures:normal;font-variant-position:normal;font-variant-caps:normal;font-variant-numeric:normal;font-variant-alternates:normal;font-variant-east-asian:normal;font-feature-settings:normal;font-variation-settings:normal;text-indent:0;text-align:start;text-decoration:none;text-decoration-line:none;text-decoration-style:solid;text-decoration-color:#000000;letter-spacing:0px;word-spacing:normal;text-transform:none;writing-mode:lr-tb;direction:ltr;text-orientation:mixed;dominant-baseline:auto;baseline-shift:baseline;text-anchor:start;white-space:normal;shape-padding:0;shape-margin:0;inline-size:0;clip-rule:nonzero;display:inline;overflow:visible;visibility:visible;isolation:auto;mix-blend-mode:normal;color-interpolation:sRGB;color-interpolation-filters:linearRGB;solid-color:#000000;solid-opacity:1;vector-effect:none;fill:#000000;fill-opacity:1;fill-rule:nonzero;stroke-width:0.264583;stroke-linecap:butt;stroke-linejoin:miter;stroke-miterlimit:4;stroke-dasharray:none;stroke-dashoffset:0;stroke-opacity:1;color-rendering:auto;image-rendering:auto;shape-rendering:auto;text-rendering:auto;enable-background:accumulate;stop-color:#000000;stop-opacity:1;stroke:none;opacity:1"
       d="m 24.012232,177.2474 h 1.019749 v 2.73541 c 0,0.43408 0.01263,0.71543 0.0379,0.84405 0.04364,0.2067 0.146993,0.37321 0.310059,0.49954 0.165365,0.12402 0.390444,0.18603 0.675239,0.18603 0.289388,0 0.507578,-0.0586 0.654569,-0.1757 0.146991,-0.11943 0.235415,-0.26527 0.265272,-0.43753 0.02986,-0.17225 0.04479,-0.4582 0.04479,-0.85783 v -2.79397 h 1.019749 v 2.65272 c 0,0.60634 -0.02756,1.03468 -0.08268,1.28503 -0.05512,0.25034 -0.157325,0.46164 -0.306614,0.63389 -0.146991,0.17226 -0.34451,0.31007 -0.592557,0.41342 -0.248047,0.10105 -0.571886,0.15158 -0.971517,0.15158 -0.482314,0 -0.848643,-0.0551 -1.098986,-0.16536 -0.248047,-0.11254 -0.444418,-0.25724 -0.589112,-0.43409 -0.144694,-0.17914 -0.240008,-0.36632 -0.285943,-0.56155 -0.06661,-0.28939 -0.09991,-0.71658 -0.09991,-1.28157 z"
       id="path105" />
    <path
       style="color:#000000;font-style:normal;font-variant:normal;font-weight:bold;font-stretch:normal;font-size:7.05556px;line-height:1.25;font-family:Arial;-inkscape-font-specification:'Arial Bold';font-variant-ligatures:normal;font-variant-position:normal;font-variant-caps:normal;font-variant-numeric:normal;font-variant-alternates:normal;font-variant-east-asian:normal;font-feature-settings:normal;font-variation-settings:normal;text-indent:0;text-align:start;text-decoration:none;text-decoration-line:none;text-decoration-style:solid;text-decoration-color:#000000;letter-spacing:0px;word-spacing:normal;text-transform:none;writing-mode:lr-tb;direction:ltr;text-orientation:mixed;dominant-baseline:auto;baseline-shift:baseline;text-anchor:start;white-space:normal;shape-padding:0;shape-margin:0;inline-size:0;clip-rule:nonzero;display:inline;overflow:visible;visibility:visible;isolation:auto;mix-blend-mode:normal;color-interpolation:sRGB;color-interpolation-filters:linearRGB;solid-color:#000000;solid-opacity:1;vector-effect:none;fill:#000000;fill-opacity:1;fill-rule:nonzero;stroke-width:0.264583;stroke-linecap:butt;stroke-linejoin:miter;stroke-miterlimit:4;stroke-dasharray:none;stroke-dashoffset:0;stroke-opacity:1;color-rendering:auto;image-rendering:auto;shape-rendering:auto;text-rendering:auto;enable-background:accumulate;stop-color:#000000;stop-opacity:1;stroke:none;opacity:1"
       d="m 28.85604,180.6546 0.992188,-0.0965 c 0.05971,0.33303 0.180292,0.57763 0.361735,0.7338 0.183739,0.15618 0.430637,0.23427 0.740696,0.23427 0.328433,0 0.575331,-0.0689 0.740696,-0.20671 0.167662,-0.1401 0.251493,-0.30317 0.251493,-0.4892 0,-0.11943 -0.0356,-0.22048 -0.106798,-0.30317 -0.0689,-0.085 -0.190629,-0.15847 -0.365181,-0.22048 -0.11943,-0.0413 -0.391593,-0.11483 -0.816488,-0.22049 -0.546622,-0.13551 -0.930176,-0.30202 -1.150663,-0.49954 -0.310059,-0.27791 -0.465088,-0.61667 -0.465088,-1.0163 0,-0.25723 0.07235,-0.49724 0.217041,-0.72003 0.146991,-0.22508 0.357142,-0.39619 0.630453,-0.51332 0.275608,-0.11713 0.607486,-0.1757 0.995634,-0.1757 0.633897,0 1.110469,0.13895 1.429715,0.41686 0.321543,0.27791 0.490352,0.64883 0.506429,1.11277 l -1.019748,0.0448 c -0.04364,-0.25953 -0.137806,-0.44556 -0.282499,-0.5581 -0.142397,-0.11484 -0.357142,-0.17226 -0.644233,-0.17226 -0.296278,0 -0.528248,0.0609 -0.69591,0.18259 -0.107946,0.0781 -0.161919,0.18259 -0.161919,0.3135 0,0.11943 0.05053,0.22164 0.151584,0.30662 0.128617,0.10795 0.440973,0.22049 0.937067,0.33762 0.496094,0.11713 0.862423,0.23886 1.098986,0.36518 0.23886,0.12402 0.424895,0.29513 0.558106,0.51332 0.135507,0.21589 0.203261,0.48346 0.203261,0.80271 0,0.28939 -0.08039,0.5604 -0.241157,0.81304 -0.160771,0.25264 -0.388148,0.44097 -0.68213,0.56499 -0.293981,0.12173 -0.66031,0.1826 -1.098986,0.1826 -0.638491,0 -1.128844,-0.14699 -1.471057,-0.44098 -0.342213,-0.29627 -0.546622,-0.72691 -0.613227,-1.29191 z"
       id="path107" />
    <path
       style="color:#000000;font-style:normal;font-variant:normal;font-weight:bold;font-stretch:normal;font-size:7.05556px;line-height:1.25;font-family:Arial;-inkscape-font-specification:'Arial Bold';font-variant-ligatures:normal;font-variant-position:normal;font-variant-caps:normal;font-variant-numeric:normal;font-variant-alternates:normal;font-variant-east-asian:normal;font-feature-settings:normal;font-variation-settings:normal;text-indent:0;text-align:start;text-decoration:none;text-decoration-line:none;text-decoration-style:solid;text-decoration-color:#000000;letter-spacing:0px;word-spacing:normal;text-transform:none;writing-mode:lr-tb;direction:ltr;text-orientation:mixed;dominant-baseline:auto;baseline-shift:baseline;text-anchor:start;white-space:normal;shape-padding:0;shape-margin:0;inline-size:0;clip-rule:nonzero;display:inline;overflow:visible;visibility:visible;isolation:auto;mix-blend-mode:normal;color-interpolation:sRGB;color-interpolation-filters:linearRGB;solid-color:#000000;solid-opacity:1;vector-effect:none;fill:#000000;fill-opacity:1;fill-rule:nonzero;stroke-width:0.264583;stroke-linecap:butt;stroke-linejoin:miter;stroke-miterlimit:4;stroke-dasharray:none;stroke-dashoffset:0;stroke-opacity:1;color-rendering:auto;image-rendering:auto;shape-rendering:auto;text-rendering:auto;enable-background:accumulate;stop-color:#000000;stop-opacity:1;stroke:none;opacity:1"
       d="m 34.957308,182.29791 v -4.19613 H 33.45869 v -0.85438 h 4.013539 v 0.85438 h -1.495172 v 4.19613 z"
       id="path109" />
    <path
       style="color:#000000;font-style:normal;font-variant:normal;font-weight:bold;font-stretch:normal;font-size:7.05556px;line-height:1.25;font-family:Arial;-inkscape-font-specification:'Arial Bold';font-variant-ligatures:normal;font-variant-position:normal;font-variant-caps:normal;font-variant-numeric:normal;font-variant-alternates:normal;font-variant-east-asian:normal;font-feature-settings:normal;font-variation-settings:normal;text-indent:0;text-align:start;text-decoration:none;text-decoration-line:none;text-decoration-style:solid;text-decoration-color:#000000;letter-spacing:0px;word-spacing:normal;text-transform:none;writing-mode:lr-tb;direction:ltr;text-orientation:mixed;dominant-baseline:auto;baseline-shift:baseline;text-anchor:start;white-space:normal;shape-padding:0;shape-margin:0;inline-size:0;clip-rule:nonzero;display:inline;overflow:visible;visibility:visible;isolation:auto;mix-blend-mode:normal;color-interpolation:sRGB;color-interpolation-filters:linearRGB;solid-color:#000000;solid-opacity:1;vector-effect:none;fill:#000000;fill-opacity:1;fill-rule:nonzero;stroke-width:0.264583;stroke-linecap:butt;stroke-linejoin:miter;stroke-miterlimit:4;stroke-dasharray:none;stroke-dashoffset:0;stroke-opacity:1;color-rendering:auto;image-rendering:auto;shape-rendering:auto;text-rendering:auto;enable-background:accumulate;stop-color:#000000;stop-opacity:1;stroke:none;opacity:1"
       d="m 38.130242,182.29791 v -5.05051 h 3.744821 v 0.85438 h -2.725072 v 1.11966 h 2.535592 v 0.85094 h -2.535592 v 1.37459 h 2.821535 v 0.85094 z"
       id="path111" />
    <path
       style="color:#000000;font-style:normal;font-variant:normal;font-weight:bold;font-stretch:normal;font-size:7.05556px;line-height:1.25;font-family:Arial;-inkscape-font-specification:'Arial Bold';font-variant-ligatures:normal;font-variant-position:normal;font-variant-caps:normal;font-variant-numeric:normal;font-variant-alternates:normal;font-variant-east-asian:normal;font-feature-settings:normal;font-variation-settings:normal;text-indent:0;text-align:start;text-decoration:none;text-decoration-line:none;text-decoration-style:solid;text-decoration-color:#000000;letter-spacing:0px;word-spacing:normal;text-transform:none;writing-mode:lr-tb;direction:ltr;text-orientation:mixed;dominant-baseline:auto;baseline-shift:baseline;text-anchor:start;white-space:normal;shape-padding:0;shape-margin:0;inline-size:0;clip-rule:nonzero;display:inline;overflow:visible;visibility:visible;isolation:auto;mix-blend-mode:normal;color-interpolation:sRGB;color-interpolation-filters:linearRGB;solid-color:#000000;solid-opacity:1;vector-effect:none;fill:#000000;fill-opacity:1;fill-rule:nonzero;stroke-width:0.264583;stroke-linecap:butt;stroke-linejoin:miter;stroke-miterlimit:4;stroke-dasharray:none;stroke-dashoffset:0;stroke-opacity:1;color-rendering:auto;image-rendering:auto;shape-rendering:auto;text-rendering:auto;enable-background:accumulate;stop-color:#000000;stop-opacity:1;stroke:none;opacity:1"
       d="m 42.846582,182.29791 v -5.05051 h 0.992188 l 2.067059,3.37275 v -3.37275 h 0.947402 v 5.05051 h -1.023194 l -2.036053,-3.29351 v 3.29351 z"
       id="path113" />
    <path
       style="color:#000000;font-style:normal;font-variant:normal;font-weight:bold;font-stretch:normal;font-size:7.05556px;line-height:1.25;font-family:Arial;-inkscape-font-specification:'Arial Bold';font-variant-ligatures:normal;font-variant-position:normal;font-variant-caps:normal;font-variant-numeric:normal;font-variant-alternates:normal;font-variant-east-asian:normal;font-feature-settings:normal;font-variation-settings:normal;text-indent:0;text-align:start;text-decoration:none;text-decoration-line:none;text-decoration-style:solid;text-decoration-color:#000000;letter-spacing:0px;word-spacing:normal;text-transform:none;writing-mode:lr-tb;direction:ltr;text-orientation:mixed;dominant-baseline:auto;baseline-shift:baseline;text-anchor:start;white-space:normal;shape-padding:0;shape-margin:0;inline-size:0;clip-rule:nonzero;display:inline;overflow:visible;visibility:visible;isolation:auto;mix-blend-mode:normal;color-interpolation:sRGB;color-interpolation-filters:linearRGB;solid-color:#000000;solid-opacity:1;vector-effect:none;fill:#000000;fill-opacity:1;fill-rule:nonzero;stroke-width:0.264583;stroke-linecap:butt;stroke-linejoin:miter;stroke-miterlimit:4;stroke-dasharray:none;stroke-dashoffset:0;stroke-opacity:1;color-rendering:auto;image-rendering:auto;shape-rendering:auto;text-rendering:auto;enable-background:accumulate;stop-color:#000000;stop-opacity:1;stroke:none;opacity:1"
       d="m 51.163047,180.441 0.988743,0.31351 c -0.151584,0.55121 -0.404224,0.96118 -0.757921,1.2299 -0.3514,0.26642 -0.798114,0.39963 -1.340143,0.39963 -0.670646,0 -1.221862,-0.22852 -1.653647,-0.68557 -0.431785,-0.45935 -0.647678,-1.08636 -0.647678,-1.88103 0,-0.8406 0.217041,-1.49287 0.651123,-1.95681 0.434083,-0.46624 1.004821,-0.69936 1.712214,-0.69936 0.617821,0 1.119656,0.18259 1.505507,0.54777 0.229673,0.21589 0.401928,0.52595 0.516765,0.93018 l -1.009414,0.24116 c -0.05971,-0.26183 -0.184885,-0.46854 -0.375515,-0.62012 -0.188332,-0.15159 -0.418005,-0.22738 -0.68902,-0.22738 -0.374367,0 -0.678684,0.13436 -0.912951,0.40308 -0.231969,0.26871 -0.347954,0.70394 -0.347954,1.30569 0,0.63849 0.114836,1.09325 0.344509,1.36426 0.229673,0.27101 0.528249,0.40652 0.895726,0.40652 0.271014,0 0.504132,-0.0861 0.699355,-0.25838 0.195222,-0.17225 0.335322,-0.44327 0.420301,-0.81305 z"
       id="path115" />
    <path
       style="color:#000000;font-style:normal;font-variant:normal;font-weight:bold;font-stretch:normal;font-size:7.05556px;line-height:1.25;font-family:Arial;-inkscape-font-specification:'Arial Bold';font-variant-ligatures:normal;font-variant-position:normal;font-variant-caps:normal;font-variant-numeric:normal;font-variant-alternates:normal;font-variant-east-asian:normal;font-feature-settings:normal;font-variation-settings:normal;text-indent:0;text-align:start;text-decoration:none;text-decoration-line:none;text-decoration-style:solid;text-decoration-color:#000000;letter-spacing:0px;word-spacing:normal;text-transform:none;writing-mode:lr-tb;direction:ltr;text-orientation:mixed;dominant-baseline:auto;baseline-shift:baseline;text-anchor:start;white-space:normal;shape-padding:0;shape-margin:0;inline-size:0;clip-rule:nonzero;display:inline;overflow:visible;visibility:visible;isolation:auto;mix-blend-mode:normal;color-interpolation:sRGB;color-interpolation-filters:linearRGB;solid-color:#000000;solid-opacity:1;vector-effect:none;fill:#000000;fill-opacity:1;fill-rule:nonzero;stroke-width:0.264583;stroke-linecap:butt;stroke-linejoin:miter;stroke-miterlimit:4;stroke-dasharray:none;stroke-dashoffset:0;stroke-opacity:1;color-rendering:auto;image-rendering:auto;shape-rendering:auto;text-rendering:auto;enable-background:accumulate;stop-color:#000000;stop-opacity:1;stroke:none;opacity:1"
       d="m 52.820139,179.80366 c 0,-0.51447 0.07694,-0.94625 0.230821,-1.29535 0.114837,-0.25724 0.271015,-0.48806 0.468534,-0.69247 0.199815,-0.20441 0.418005,-0.35599 0.654568,-0.45475 0.314652,-0.13321 0.677536,-0.19982 1.088651,-0.19982 0.744141,0 1.338995,0.23082 1.784561,0.69247 0.447863,0.46164 0.671794,1.10358 0.671794,1.92581 0,0.81534 -0.221635,1.45383 -0.664904,1.91547 -0.443269,0.45935 -1.035826,0.68902 -1.777671,0.68902 -0.751031,0 -1.348181,-0.22852 -1.79145,-0.68557 -0.443269,-0.45935 -0.664904,-1.09095 -0.664904,-1.89481 z m 1.050755,-0.0345 c 0,0.57189 0.132062,1.00597 0.396186,1.30225 0.264124,0.29398 0.599447,0.44097 1.005968,0.44097 0.406522,0 0.739548,-0.14584 0.999079,-0.43753 0.261827,-0.29398 0.392741,-0.7338 0.392741,-1.31947 0,-0.57877 -0.127469,-1.01056 -0.382406,-1.29536 -0.252641,-0.28479 -0.589112,-0.42719 -1.009414,-0.42719 -0.420302,0 -0.75907,0.14469 -1.016304,0.43408 -0.257233,0.28709 -0.38585,0.72118 -0.38585,1.30225 z"
       id="path117" />
    <path
       style="color:#000000;font-style:normal;font-variant:normal;font-weight:bold;font-stretch:normal;font-size:7.05556px;line-height:1.25;font-family:Arial;-inkscape-font-specification:'Arial Bold';font-variant-ligatures:normal;font-variant-position:normal;font-variant-caps:normal;font-variant-numeric:normal;font-variant-alternates:normal;font-variant-east-asian:normal;font-feature-settings:normal;font-variation-settings:normal;text-indent:0;text-align:start;text-decoration:none;text-decoration-line:none;text-decoration-style:solid;text-decoration-color:#000000;letter-spacing:0px;word-spacing:normal;text-transform:none;writing-mode:lr-tb;direction:ltr;text-orientation:mixed;dominant-baseline:auto;baseline-shift:baseline;text-anchor:start;white-space:normal;shape-padding:0;shape-margin:0;inline-size:0;clip-rule:nonzero;display:inline;overflow:visible;visibility:visible;isolation:auto;mix-blend-mode:normal;color-interpolation:sRGB;color-interpolation-filters:linearRGB;solid-color:#000000;solid-opacity:1;vector-effect:none;fill:#000000;fill-opacity:1;fill-rule:nonzero;stroke-width:0.264583;stroke-linecap:butt;stroke-linejoin:miter;stroke-miterlimit:4;stroke-dasharray:none;stroke-dashoffset:0;stroke-opacity:1;color-rendering:auto;image-rendering:auto;shape-rendering:auto;text-rendering:auto;enable-background:accumulate;stop-color:#000000;stop-opacity:1;stroke:none;opacity:1"
       d="m 58.525221,182.29791 v -5.05051 h 0.992188 l 2.067059,3.37275 v -3.37275 h 0.947401 v 5.05051 h -1.023194 l -2.036052,-3.29351 v 3.29351 z"
       id="path119" />
    <path
       style="color:#000000;font-style:normal;font-variant:normal;font-weight:bold;font-stretch:normal;font-size:7.05556px;line-height:1.25;font-family:Arial;-inkscape-font-specification:'Arial Bold';font-variant-ligatures:normal;font-variant-position:normal;font-variant-caps:normal;font-variant-numeric:normal;font-variant-alternates:normal;font-variant-east-asian:normal;font-feature-settings:normal;font-variation-settings:normal;text-indent:0;text-align:start;text-decoration:none;text-decoration-line:none;text-decoration-style:solid;text-decoration-color:#000000;letter-spacing:0px;word-spacing:normal;text-transform:none;writing-mode:lr-tb;direction:ltr;text-orientation:mixed;dominant-baseline:auto;baseline-shift:baseline;text-anchor:start;white-space:normal;shape-padding:0;shape-margin:0;inline-size:0;clip-rule:nonzero;display:inline;overflow:visible;visibility:visible;isolation:auto;mix-blend-mode:normal;color-interpolation:sRGB;color-interpolation-filters:linearRGB;solid-color:#000000;solid-opacity:1;vector-effect:none;fill:#000000;fill-opacity:1;fill-rule:nonzero;stroke-width:0.264583;stroke-linecap:butt;stroke-linejoin:miter;stroke-miterlimit:4;stroke-dasharray:none;stroke-dashoffset:0;stroke-opacity:1;color-rendering:auto;image-rendering:auto;shape-rendering:auto;text-rendering:auto;enable-background:accumulate;stop-color:#000000;stop-opacity:1;stroke:none;opacity:1"
       d="m 64.747067,182.29791 v -4.19613 h -1.498618 v -0.85438 h 4.013539 v 0.85438 h -1.495173 v 4.19613 z"
       id="path121" />
    <path
       style="color:#000000;font-style:normal;font-variant:normal;font-weight:bold;font-stretch:normal;font-size:7.05556px;line-height:1.25;font-family:Arial;-inkscape-font-specification:'Arial Bold';font-variant-ligatures:normal;font-variant-position:normal;font-variant-caps:normal;font-variant-numeric:normal;font-variant-alternates:normal;font-variant-east-asian:normal;font-feature-settings:normal;font-variation-settings:normal;text-indent:0;text-align:start;text-decoration:none;text-decoration-line:none;text-decoration-style:solid;text-decoration-color:#000000;letter-spacing:0px;word-spacing:normal;text-transform:none;writing-mode:lr-tb;direction:ltr;text-orientation:mixed;dominant-baseline:auto;baseline-shift:baseline;text-anchor:start;white-space:normal;shape-padding:0;shape-margin:0;inline-size:0;clip-rule:nonzero;display:inline;overflow:visible;visibility:visible;isolation:auto;mix-blend-mode:normal;color-interpolation:sRGB;color-interpolation-filters:linearRGB;solid-color:#000000;solid-opacity:1;vector-effect:none;fill:#000000;fill-opacity:1;fill-rule:nonzero;stroke-width:0.264583;stroke-linecap:butt;stroke-linejoin:miter;stroke-miterlimit:4;stroke-dasharray:none;stroke-dashoffset:0;stroke-opacity:1;color-rendering:auto;image-rendering:auto;shape-rendering:auto;text-rendering:auto;enable-background:accumulate;stop-color:#000000;stop-opacity:1;stroke:none;opacity:1"
       d="m 67.923448,182.29791 v -5.05051 h 2.146295 c 0.539732,0 0.931325,0.0459 1.174779,0.1378 0.24575,0.0896 0.442121,0.25035 0.589112,0.48232 0.146991,0.23197 0.220486,0.49724 0.220486,0.79581 0,0.37897 -0.111392,0.69247 -0.334175,0.94052 -0.222783,0.24575 -0.555809,0.40077 -0.999078,0.46508 0.220486,0.12862 0.401928,0.26987 0.544325,0.42375 0.144695,0.15388 0.338769,0.42719 0.582222,0.81993 l 0.616672,0.9853 h -1.219564 l -0.737251,-1.09898 c -0.261827,-0.39275 -0.440972,-0.63965 -0.537435,-0.7407 -0.09646,-0.10335 -0.198667,-0.1734 -0.306614,-0.21015 -0.107947,-0.0391 -0.279053,-0.0586 -0.51332,-0.0586 h -0.206705 v 2.1084 z m 1.019749,-2.91455 h 0.754476 c 0.489204,0 0.794669,-0.0207 0.916396,-0.062 0.121727,-0.0413 0.217041,-0.11253 0.285943,-0.2136 0.0689,-0.10105 0.103353,-0.22737 0.103353,-0.37896 0,-0.16996 -0.04594,-0.30662 -0.137804,-0.40997 -0.08957,-0.10565 -0.217041,-0.17225 -0.382406,-0.19981 -0.08268,-0.0115 -0.330729,-0.0172 -0.744141,-0.0172 h -0.795817 z"
       id="path123" />
    <path
       style="color:#000000;font-style:normal;font-variant:normal;font-weight:bold;font-stretch:normal;font-size:7.05556px;line-height:1.25;font-family:Arial;-inkscape-font-specification:'Arial Bold';font-variant-ligatures:normal;font-variant-position:normal;font-variant-caps:normal;font-variant-numeric:normal;font-variant-alternates:normal;font-variant-east-asian:normal;font-feature-settings:normal;font-variation-settings:normal;text-indent:0;text-align:start;text-decoration:none;text-decoration-line:none;text-decoration-style:solid;text-decoration-color:#000000;letter-spacing:0px;word-spacing:normal;text-transform:none;writing-mode:lr-tb;direction:ltr;text-orientation:mixed;dominant-baseline:auto;baseline-shift:baseline;text-anchor:start;white-space:normal;shape-padding:0;shape-margin:0;inline-size:0;clip-rule:nonzero;display:inline;overflow:visible;visibility:visible;isolation:auto;mix-blend-mode:normal;color-interpolation:sRGB;color-interpolation-filters:linearRGB;solid-color:#000000;solid-opacity:1;vector-effect:none;fill:#000000;fill-opacity:1;fill-rule:nonzero;stroke-width:0.264583;stroke-linecap:butt;stroke-linejoin:miter;stroke-miterlimit:4;stroke-dasharray:none;stroke-dashoffset:0;stroke-opacity:1;color-rendering:auto;image-rendering:auto;shape-rendering:auto;text-rendering:auto;enable-background:accumulate;stop-color:#000000;stop-opacity:1;stroke:none;opacity:1"
       d="m 72.808599,179.80366 c 0,-0.51447 0.07694,-0.94625 0.230822,-1.29535 0.114837,-0.25724 0.271014,-0.48806 0.468533,-0.69247 0.199816,-0.20441 0.418006,-0.35599 0.654569,-0.45475 0.314652,-0.13321 0.677536,-0.19982 1.088651,-0.19982 0.744141,0 1.338994,0.23082 1.78456,0.69247 0.447863,0.46164 0.671794,1.10358 0.671794,1.92581 0,0.81534 -0.221635,1.45383 -0.664904,1.91547 -0.443269,0.45935 -1.035826,0.68902 -1.77767,0.68902 -0.751031,0 -1.348182,-0.22852 -1.791451,-0.68557 -0.443269,-0.45935 -0.664904,-1.09095 -0.664904,-1.89481 z m 1.050755,-0.0345 c 0,0.57189 0.132062,1.00597 0.396186,1.30225 0.264125,0.29398 0.599448,0.44097 1.005969,0.44097 0.406521,0 0.739547,-0.14584 0.999078,-0.43753 0.261827,-0.29398 0.392741,-0.7338 0.392741,-1.31947 0,-0.57877 -0.127469,-1.01056 -0.382406,-1.29536 -0.25264,-0.28479 -0.589111,-0.42719 -1.009413,-0.42719 -0.420302,0 -0.75907,0.14469 -1.016304,0.43408 -0.257234,0.28709 -0.385851,0.72118 -0.385851,1.30225 z"
       id="path125" />
    <path
       style="color:#000000;font-style:normal;font-variant:normal;font-weight:bold;font-stretch:normal;font-size:7.05556px;line-height:1.25;font-family:Arial;-inkscape-font-specification:'Arial Bold';font-variant-ligatures:normal;font-variant-position:normal;font-variant-caps:normal;font-variant-numeric:normal;font-variant-alternates:normal;font-variant-east-asian:normal;font-feature-settings:normal;font-variation-settings:normal;text-indent:0;text-align:start;text-decoration:none;text-decoration-line:none;text-decoration-style:solid;text-decoration-color:#000000;letter-spacing:0px;word-spacing:normal;text-transform:none;writing-mode:lr-tb;direction:ltr;text-orientation:mixed;dominant-baseline:auto;baseline-shift:baseline;text-anchor:start;white-space:normal;shape-padding:0;shape-margin:0;inline-size:0;clip-rule:nonzero;display:inline;overflow:visible;visibility:visible;isolation:auto;mix-blend-mode:normal;color-interpolation:sRGB;color-interpolation-filters:linearRGB;solid-color:#000000;solid-opacity:1;vector-effect:none;fill:#000000;fill-opacity:1;fill-rule:nonzero;stroke-width:0.264583;stroke-linecap:butt;stroke-linejoin:miter;stroke-miterlimit:4;stroke-dasharray:none;stroke-dashoffset:0;stroke-opacity:1;color-rendering:auto;image-rendering:auto;shape-rendering:auto;text-rendering:auto;enable-background:accumulate;stop-color:#000000;stop-opacity:1;stroke:none;opacity:1"
       d="m 78.530903,182.29791 v -5.00917 h 1.019749 v 4.15823 h 2.535592 v 0.85094 z"
       id="path127" />
  </g>
</svg>
